<svg xmlns="http://www.w3.org/2000/svg" xmlns:xlink="http://www.w3.org/1999/xlink" width="135" zoomAndPan="magnify" viewBox="0 0 101.25 30.000001" height="40" preserveAspectRatio="xMidYMid meet" version="1.0"><defs><g/><clipPath id="0f8f4b0b1b"><path d="M 1.269531 0 L 99.253906 0 L 99.253906 29.03125 L 1.269531 29.03125 Z M 1.269531 0 " clip-rule="nonzero"/></clipPath><clipPath id="3128203e05"><path d="M 11.628906 5.804688 L 27.59375 5.804688 L 27.59375 23.832031 L 11.628906 23.832031 Z M 11.628906 5.804688 " clip-rule="nonzero"/></clipPath><clipPath id="ca2622a007"><path d="M 13.078125 5.804688 L 26.144531 5.804688 C 26.945312 5.804688 27.59375 6.457031 27.59375 7.257812 L 27.59375 22.355469 C 27.59375 23.15625 26.945312 23.804688 26.144531 23.804688 L 13.078125 23.804688 C 12.277344 23.804688 11.628906 23.15625 11.628906 22.355469 L 11.628906 7.257812 C 11.628906 6.457031 12.277344 5.804688 13.078125 5.804688 Z M 13.078125 5.804688 " clip-rule="nonzero"/></clipPath><clipPath id="266082c63c"><path d="M 0.628906 0.804688 L 16.59375 0.804688 L 16.59375 18.832031 L 0.628906 18.832031 Z M 0.628906 0.804688 " clip-rule="nonzero"/></clipPath><clipPath id="3f456a9f68"><path d="M 2.078125 0.804688 L 15.144531 0.804688 C 15.945312 0.804688 16.59375 1.457031 16.59375 2.257812 L 16.59375 17.355469 C 16.59375 18.15625 15.945312 18.804688 15.144531 18.804688 L 2.078125 18.804688 C 1.277344 18.804688 0.628906 18.15625 0.628906 17.355469 L 0.628906 2.257812 C 0.628906 1.457031 1.277344 0.804688 2.078125 0.804688 Z M 2.078125 0.804688 " clip-rule="nonzero"/></clipPath><clipPath id="8632cf684d"><rect x="0" width="17" y="0" height="19"/></clipPath><clipPath id="2817b79149"><path d="M 12 7 L 26 7 L 26 25.113281 L 12 25.113281 Z M 12 7 " clip-rule="nonzero"/></clipPath><clipPath id="b99461f56e"><path d="M 18 4.066406 L 24 4.066406 L 24 8 L 18 8 Z M 18 4.066406 " clip-rule="nonzero"/></clipPath><clipPath id="f9a60d4d06"><path d="M 18 4.066406 L 20 4.066406 L 20 9 L 18 9 Z M 18 4.066406 " clip-rule="nonzero"/></clipPath><clipPath id="085cb3b0ca"><path d="M 30.664062 12.917969 L 88.597656 12.917969 L 88.597656 25.695312 L 30.664062 25.695312 Z M 30.664062 12.917969 " clip-rule="nonzero"/></clipPath><clipPath id="67d231e539"><path d="M 32.117188 12.917969 L 87.132812 12.917969 C 87.933594 12.917969 88.585938 13.570312 88.585938 14.371094 L 88.585938 24.242188 C 88.585938 25.042969 87.933594 25.695312 87.132812 25.695312 L 32.117188 25.695312 C 31.316406 25.695312 30.664062 25.042969 30.664062 24.242188 L 30.664062 14.371094 C 30.664062 13.570312 31.316406 12.917969 32.117188 12.917969 Z M 32.117188 12.917969 " clip-rule="nonzero"/></clipPath><clipPath id="9bdee5d89c"><path d="M 0.664062 0.917969 L 58.597656 0.917969 L 58.597656 13.695312 L 0.664062 13.695312 Z M 0.664062 0.917969 " clip-rule="nonzero"/></clipPath><clipPath id="f0ea333f24"><path d="M 2.117188 0.917969 L 57.132812 0.917969 C 57.933594 0.917969 58.585938 1.570312 58.585938 2.371094 L 58.585938 12.242188 C 58.585938 13.042969 57.933594 13.695312 57.132812 13.695312 L 2.117188 13.695312 C 1.316406 13.695312 0.664062 13.042969 0.664062 12.242188 L 0.664062 2.371094 C 0.664062 1.570312 1.316406 0.917969 2.117188 0.917969 Z M 2.117188 0.917969 " clip-rule="nonzero"/></clipPath><clipPath id="4f362e559f"><rect x="0" width="59" y="0" height="14"/></clipPath><clipPath id="42e1d548eb"><rect x="0" width="49" y="0" height="15"/></clipPath></defs><g clip-path="url(#0f8f4b0b1b)"><path fill="#a6a6a6" d="M 91.300781 0 L 9.226562 0 C 8.925781 0 8.632812 0 8.332031 0 C 8.082031 0.00390625 7.835938 0.0078125 7.582031 0.0117188 C 7.035156 0.015625 6.492188 0.0585938 5.949219 0.140625 C 5.40625 0.222656 4.890625 0.371094 4.398438 0.59375 C 3.90625 0.816406 3.46875 1.101562 3.078125 1.449219 C 2.6875 1.796875 2.367188 2.1875 2.117188 2.625 C 1.867188 3.0625 1.695312 3.523438 1.605469 4.007812 C 1.515625 4.488281 1.46875 4.972656 1.460938 5.460938 C 1.453125 5.683594 1.453125 5.90625 1.449219 6.128906 L 1.449219 22.90625 C 1.453125 23.132812 1.453125 23.347656 1.460938 23.574219 C 1.46875 24.0625 1.515625 24.546875 1.605469 25.027344 C 1.695312 25.511719 1.867188 25.972656 2.117188 26.410156 C 2.367188 26.847656 2.6875 27.238281 3.078125 27.582031 C 3.464844 27.929688 3.90625 28.214844 4.398438 28.4375 C 4.890625 28.660156 5.40625 28.8125 5.949219 28.894531 C 6.492188 28.972656 7.035156 29.015625 7.582031 29.023438 C 7.835938 29.027344 8.082031 29.03125 8.332031 29.03125 C 8.632812 29.03125 8.925781 29.03125 9.226562 29.03125 L 91.300781 29.03125 C 91.59375 29.03125 91.890625 29.03125 92.1875 29.03125 C 92.433594 29.03125 92.6875 29.027344 92.9375 29.023438 C 93.484375 29.015625 94.027344 28.972656 94.570312 28.894531 C 95.113281 28.8125 95.632812 28.660156 96.125 28.4375 C 96.617188 28.214844 97.058594 27.929688 97.445312 27.582031 C 97.835938 27.234375 98.15625 26.84375 98.410156 26.410156 C 98.65625 25.972656 98.824219 25.511719 98.914062 25.027344 C 99.003906 24.546875 99.054688 24.0625 99.066406 23.574219 C 99.070312 23.347656 99.070312 23.132812 99.070312 22.90625 C 99.074219 22.640625 99.074219 22.378906 99.074219 22.113281 L 99.074219 6.921875 C 99.074219 6.65625 99.074219 6.390625 99.070312 6.128906 C 99.070312 5.90625 99.070312 5.683594 99.066406 5.460938 C 99.054688 4.972656 99.003906 4.488281 98.914062 4.007812 C 98.824219 3.523438 98.65625 3.0625 98.410156 2.625 C 97.894531 1.730469 97.132812 1.054688 96.125 0.59375 C 95.632812 0.375 95.113281 0.222656 94.570312 0.140625 C 94.027344 0.0585938 93.484375 0.015625 92.9375 0.0117188 C 92.6875 0.0078125 92.433594 0.00390625 92.1875 0 C 91.890625 0 91.59375 0 91.300781 0 Z M 91.300781 0 " fill-opacity="1" fill-rule="nonzero"/></g><path fill="#000000" d="M 8.335938 28.398438 C 8.089844 28.398438 7.847656 28.394531 7.601562 28.390625 C 7.089844 28.382812 6.578125 28.34375 6.074219 28.269531 C 5.601562 28.199219 5.152344 28.066406 4.722656 27.875 C 4.296875 27.683594 3.917969 27.4375 3.582031 27.136719 C 3.242188 26.839844 2.964844 26.5 2.75 26.121094 C 2.535156 25.742188 2.386719 25.339844 2.308594 24.917969 C 2.222656 24.46875 2.179688 24.015625 2.171875 23.558594 C 2.167969 23.40625 2.160156 22.894531 2.160156 22.894531 L 2.160156 6.128906 C 2.160156 6.128906 2.167969 5.628906 2.171875 5.480469 C 2.179688 5.023438 2.222656 4.570312 2.308594 4.121094 C 2.386719 3.699219 2.535156 3.296875 2.75 2.914062 C 2.964844 2.535156 3.242188 2.199219 3.578125 1.898438 C 3.917969 1.597656 4.296875 1.351562 4.722656 1.15625 C 5.148438 0.964844 5.601562 0.835938 6.070312 0.761719 C 6.578125 0.6875 7.089844 0.648438 7.601562 0.644531 L 8.339844 0.636719 L 92.179688 0.636719 L 92.925781 0.644531 C 93.433594 0.648438 93.941406 0.6875 94.441406 0.761719 C 94.917969 0.835938 95.375 0.96875 95.804688 1.160156 C 96.675781 1.558594 97.332031 2.144531 97.777344 2.917969 C 97.988281 3.296875 98.136719 3.695312 98.210938 4.113281 C 98.296875 4.566406 98.34375 5.023438 98.355469 5.484375 C 98.355469 5.6875 98.355469 5.910156 98.355469 6.128906 C 98.363281 6.402344 98.363281 6.660156 98.363281 6.921875 L 98.363281 22.113281 C 98.363281 22.375 98.363281 22.632812 98.355469 22.890625 C 98.355469 23.128906 98.355469 23.34375 98.355469 23.566406 C 98.34375 24.019531 98.296875 24.464844 98.214844 24.910156 C 98.136719 25.335938 97.992188 25.742188 97.773438 26.125 C 97.558594 26.5 97.28125 26.832031 96.945312 27.128906 C 96.609375 27.433594 96.230469 27.679688 95.804688 27.871094 C 95.371094 28.066406 94.917969 28.199219 94.441406 28.269531 C 93.9375 28.34375 93.429688 28.382812 92.917969 28.390625 C 92.679688 28.394531 92.429688 28.398438 92.1875 28.398438 Z M 8.335938 28.398438 " fill-opacity="1" fill-rule="nonzero"/><path fill="#ffffff" d="M 24.8125 14.734375 C 24.820312 14.117188 24.976562 13.542969 25.28125 13.007812 C 25.585938 12.472656 26 12.042969 26.523438 11.722656 C 26.191406 11.246094 25.769531 10.871094 25.261719 10.59375 C 24.75 10.320312 24.207031 10.171875 23.625 10.15625 C 22.40625 10.027344 21.226562 10.882812 20.605469 10.882812 C 19.972656 10.882812 19.015625 10.167969 17.984375 10.1875 C 17.308594 10.210938 16.679688 10.398438 16.101562 10.75 C 15.523438 11.105469 15.070312 11.578125 14.738281 12.167969 C 13.335938 14.597656 14.382812 18.171875 15.726562 20.136719 C 16.398438 21.097656 17.1875 22.171875 18.214844 22.132812 C 19.222656 22.089844 19.597656 21.492188 20.8125 21.492188 C 22.015625 21.492188 22.371094 22.132812 23.417969 22.109375 C 24.5 22.089844 25.179688 21.144531 25.828125 20.171875 C 26.316406 19.480469 26.683594 18.734375 26.929688 17.925781 C 26.289062 17.65625 25.777344 17.230469 25.390625 16.648438 C 25.007812 16.070312 24.8125 15.429688 24.8125 14.734375 Z M 24.8125 14.734375 " fill-opacity="1" fill-rule="nonzero"/><path fill="#ffffff" d="M 22.832031 8.863281 C 23.441406 8.128906 23.710938 7.285156 23.640625 6.328125 C 22.707031 6.425781 21.929688 6.828125 21.3125 7.535156 C 20.695312 8.234375 20.421875 9.046875 20.480469 9.972656 C 20.9375 9.976562 21.371094 9.882812 21.78125 9.6875 C 22.195312 9.492188 22.542969 9.21875 22.832031 8.863281 Z M 22.832031 8.863281 " fill-opacity="1" fill-rule="nonzero"/><path fill="#ffffff" d="M 37.539062 19.699219 L 34.101562 19.699219 L 33.277344 22.132812 L 31.824219 22.132812 L 35.078125 13.121094 L 36.589844 13.121094 L 39.84375 22.132812 L 38.363281 22.132812 Z M 34.457031 18.574219 L 37.183594 18.574219 L 35.839844 14.621094 L 35.800781 14.621094 Z M 34.457031 18.574219 " fill-opacity="1" fill-rule="nonzero"/><path fill="#ffffff" d="M 46.871094 18.847656 C 46.871094 20.890625 45.777344 22.203125 44.128906 22.203125 C 43.703125 22.226562 43.300781 22.132812 42.929688 21.925781 C 42.554688 21.71875 42.265625 21.425781 42.0625 21.054688 L 42.03125 21.054688 L 42.03125 24.308594 L 40.679688 24.308594 L 40.679688 15.5625 L 41.984375 15.5625 L 41.984375 16.65625 L 42.011719 16.65625 C 42.226562 16.285156 42.523438 15.996094 42.898438 15.785156 C 43.273438 15.578125 43.675781 15.480469 44.101562 15.496094 C 45.769531 15.496094 46.871094 16.8125 46.871094 18.847656 Z M 45.484375 18.847656 C 45.484375 17.519531 44.796875 16.644531 43.746094 16.644531 C 42.71875 16.644531 42.023438 17.539062 42.023438 18.847656 C 42.023438 20.171875 42.71875 21.058594 43.746094 21.058594 C 44.796875 21.058594 45.484375 20.191406 45.484375 18.847656 Z M 45.484375 18.847656 " fill-opacity="1" fill-rule="nonzero"/><path fill="#ffffff" d="M 54.101562 18.847656 C 54.101562 20.890625 53.011719 22.203125 51.359375 22.203125 C 50.933594 22.226562 50.535156 22.132812 50.160156 21.925781 C 49.789062 21.71875 49.5 21.425781 49.292969 21.054688 L 49.261719 21.054688 L 49.261719 24.308594 L 47.914062 24.308594 L 47.914062 15.5625 L 49.21875 15.5625 L 49.21875 16.65625 L 49.242188 16.65625 C 49.457031 16.285156 49.753906 15.996094 50.128906 15.785156 C 50.503906 15.578125 50.90625 15.480469 51.335938 15.496094 C 53.003906 15.496094 54.101562 16.8125 54.101562 18.847656 Z M 52.714844 18.847656 C 52.714844 17.519531 52.027344 16.644531 50.980469 16.644531 C 49.949219 16.644531 49.257812 17.539062 49.257812 18.847656 C 49.257812 20.171875 49.949219 21.058594 50.980469 21.058594 C 52.027344 21.058594 52.714844 20.191406 52.714844 18.847656 Z M 52.714844 18.847656 " fill-opacity="1" fill-rule="nonzero"/><path fill="#ffffff" d="M 58.882812 19.625 C 58.984375 20.515625 59.851562 21.105469 61.039062 21.105469 C 62.175781 21.105469 62.992188 20.515625 62.992188 19.710938 C 62.992188 19.011719 62.5 18.59375 61.332031 18.304688 L 60.164062 18.023438 C 58.507812 17.625 57.738281 16.851562 57.738281 15.59375 C 57.738281 14.039062 59.09375 12.972656 61.019531 12.972656 C 62.925781 12.972656 64.230469 14.039062 64.273438 15.59375 L 62.910156 15.59375 C 62.832031 14.695312 62.085938 14.152344 61 14.152344 C 59.914062 14.152344 59.171875 14.703125 59.171875 15.5 C 59.171875 16.136719 59.644531 16.511719 60.808594 16.800781 L 61.800781 17.042969 C 63.648438 17.480469 64.417969 18.222656 64.417969 19.542969 C 64.417969 21.226562 63.074219 22.285156 60.9375 22.285156 C 58.9375 22.285156 57.589844 21.253906 57.503906 19.621094 Z M 58.882812 19.625 " fill-opacity="1" fill-rule="nonzero"/><path fill="#ffffff" d="M 67.328125 14.007812 L 67.328125 15.5625 L 68.578125 15.5625 L 68.578125 16.632812 L 67.328125 16.632812 L 67.328125 20.253906 C 67.328125 20.816406 67.578125 21.078125 68.128906 21.078125 C 68.277344 21.078125 68.425781 21.066406 68.570312 21.046875 L 68.570312 22.109375 C 68.324219 22.15625 68.074219 22.175781 67.824219 22.171875 C 66.492188 22.171875 65.972656 21.671875 65.972656 20.398438 L 65.972656 16.632812 L 65.019531 16.632812 L 65.019531 15.5625 L 65.972656 15.5625 L 65.972656 14.007812 Z M 67.328125 14.007812 " fill-opacity="1" fill-rule="nonzero"/><path fill="#ffffff" d="M 69.300781 18.847656 C 69.300781 16.78125 70.519531 15.480469 72.417969 15.480469 C 74.324219 15.480469 75.535156 16.78125 75.535156 18.847656 C 75.535156 20.921875 74.332031 22.214844 72.417969 22.214844 C 70.507812 22.214844 69.300781 20.921875 69.300781 18.847656 Z M 74.160156 18.847656 C 74.160156 17.429688 73.511719 16.59375 72.417969 16.59375 C 71.324219 16.59375 70.675781 17.4375 70.675781 18.847656 C 70.675781 20.273438 71.324219 21.105469 72.417969 21.105469 C 73.511719 21.105469 74.160156 20.273438 74.160156 18.847656 Z M 74.160156 18.847656 " fill-opacity="1" fill-rule="nonzero"/><path fill="#ffffff" d="M 76.648438 15.5625 L 77.933594 15.5625 L 77.933594 16.679688 L 77.964844 16.679688 C 78.054688 16.320312 78.25 16.03125 78.546875 15.808594 C 78.839844 15.585938 79.175781 15.480469 79.546875 15.496094 C 79.703125 15.492188 79.855469 15.511719 80.007812 15.542969 L 80.007812 16.804688 C 79.8125 16.746094 79.609375 16.71875 79.402344 16.726562 C 79.203125 16.714844 79.011719 16.75 78.828125 16.824219 C 78.644531 16.902344 78.488281 17.011719 78.351562 17.15625 C 78.214844 17.304688 78.117188 17.46875 78.054688 17.65625 C 77.992188 17.847656 77.972656 18.039062 77.996094 18.238281 L 77.996094 22.132812 L 76.648438 22.132812 Z M 76.648438 15.5625 " fill-opacity="1" fill-rule="nonzero"/><path fill="#ffffff" d="M 86.226562 20.203125 C 86.046875 21.398438 84.882812 22.214844 83.398438 22.214844 C 81.484375 22.214844 80.300781 20.933594 80.300781 18.878906 C 80.300781 16.820312 81.492188 15.480469 83.339844 15.480469 C 85.160156 15.480469 86.300781 16.730469 86.300781 18.722656 L 86.300781 19.1875 L 81.660156 19.1875 L 81.660156 19.265625 C 81.640625 19.511719 81.667969 19.75 81.75 19.980469 C 81.832031 20.214844 81.957031 20.417969 82.125 20.597656 C 82.292969 20.773438 82.492188 20.910156 82.71875 21.003906 C 82.945312 21.097656 83.183594 21.136719 83.429688 21.128906 C 83.757812 21.160156 84.058594 21.089844 84.339844 20.917969 C 84.621094 20.746094 84.824219 20.507812 84.945312 20.203125 Z M 81.667969 18.242188 L 84.953125 18.242188 C 84.964844 18.023438 84.933594 17.808594 84.855469 17.605469 C 84.777344 17.398438 84.664062 17.214844 84.511719 17.058594 C 84.359375 16.898438 84.179688 16.777344 83.976562 16.695312 C 83.773438 16.609375 83.5625 16.570312 83.339844 16.574219 C 83.121094 16.574219 82.90625 16.617188 82.699219 16.699219 C 82.496094 16.785156 82.3125 16.902344 82.15625 17.058594 C 82 17.21875 81.878906 17.398438 81.792969 17.601562 C 81.710938 17.808594 81.667969 18.019531 81.667969 18.242188 Z M 81.667969 18.242188 " fill-opacity="1" fill-rule="nonzero"/><path fill="#ffffff" d="M 34.289062 6.335938 C 34.574219 6.316406 34.851562 6.359375 35.121094 6.460938 C 35.386719 6.566406 35.621094 6.722656 35.816406 6.929688 C 36.015625 7.140625 36.160156 7.378906 36.246094 7.652344 C 36.335938 7.925781 36.363281 8.203125 36.328125 8.488281 C 36.328125 9.871094 35.578125 10.667969 34.289062 10.667969 L 32.726562 10.667969 L 32.726562 6.335938 Z M 33.398438 10.054688 L 34.214844 10.054688 C 34.417969 10.066406 34.617188 10.035156 34.808594 9.957031 C 34.996094 9.882812 35.160156 9.765625 35.300781 9.617188 C 35.4375 9.464844 35.539062 9.292969 35.597656 9.097656 C 35.65625 8.898438 35.671875 8.699219 35.644531 8.496094 C 35.671875 8.296875 35.652344 8.097656 35.59375 7.902344 C 35.53125 7.707031 35.433594 7.535156 35.292969 7.386719 C 35.15625 7.238281 34.992188 7.125 34.804688 7.046875 C 34.613281 6.96875 34.417969 6.9375 34.214844 6.949219 L 33.398438 6.949219 Z M 33.398438 10.054688 " fill-opacity="1" fill-rule="nonzero"/><path fill="#ffffff" d="M 37.085938 9.03125 C 37.066406 8.816406 37.089844 8.601562 37.160156 8.394531 C 37.226562 8.1875 37.335938 8.003906 37.484375 7.84375 C 37.628906 7.683594 37.804688 7.558594 38.003906 7.46875 C 38.203125 7.378906 38.410156 7.335938 38.628906 7.335938 C 38.847656 7.335938 39.054688 7.378906 39.253906 7.46875 C 39.453125 7.558594 39.628906 7.683594 39.773438 7.84375 C 39.921875 8.003906 40.027344 8.1875 40.097656 8.394531 C 40.167969 8.601562 40.191406 8.816406 40.171875 9.03125 C 40.191406 9.25 40.167969 9.460938 40.097656 9.667969 C 40.03125 9.875 39.921875 10.0625 39.777344 10.222656 C 39.628906 10.382812 39.457031 10.511719 39.257812 10.597656 C 39.054688 10.6875 38.847656 10.730469 38.628906 10.730469 C 38.410156 10.730469 38.203125 10.6875 38 10.597656 C 37.800781 10.511719 37.628906 10.382812 37.480469 10.222656 C 37.335938 10.0625 37.226562 9.875 37.160156 9.667969 C 37.089844 9.460938 37.066406 9.25 37.085938 9.03125 Z M 39.507812 9.03125 C 39.507812 8.324219 39.1875 7.910156 38.628906 7.910156 C 38.070312 7.910156 37.753906 8.324219 37.753906 9.03125 C 37.753906 9.746094 38.070312 10.15625 38.628906 10.15625 C 39.1875 10.15625 39.507812 9.742188 39.507812 9.03125 Z M 39.507812 9.03125 " fill-opacity="1" fill-rule="nonzero"/><path fill="#ffffff" d="M 44.265625 10.667969 L 43.597656 10.667969 L 42.921875 8.261719 L 42.871094 8.261719 L 42.199219 10.667969 L 41.535156 10.667969 L 40.636719 7.398438 L 41.289062 7.398438 L 41.875 9.894531 L 41.921875 9.894531 L 42.59375 7.398438 L 43.214844 7.398438 L 43.886719 9.894531 L 43.9375 9.894531 L 44.519531 7.398438 L 45.164062 7.398438 Z M 44.265625 10.667969 " fill-opacity="1" fill-rule="nonzero"/><path fill="#ffffff" d="M 45.921875 7.398438 L 46.542969 7.398438 L 46.542969 7.917969 L 46.589844 7.917969 C 46.675781 7.726562 46.808594 7.578125 46.984375 7.472656 C 47.164062 7.363281 47.359375 7.320312 47.566406 7.335938 C 47.726562 7.324219 47.882812 7.347656 48.035156 7.40625 C 48.183594 7.464844 48.316406 7.554688 48.425781 7.671875 C 48.535156 7.789062 48.613281 7.925781 48.660156 8.082031 C 48.710938 8.234375 48.722656 8.390625 48.699219 8.550781 L 48.699219 10.667969 L 48.054688 10.667969 L 48.054688 8.714844 C 48.054688 8.1875 47.824219 7.925781 47.347656 7.925781 C 47.238281 7.921875 47.132812 7.941406 47.03125 7.980469 C 46.929688 8.023438 46.84375 8.082031 46.765625 8.164062 C 46.691406 8.242188 46.636719 8.332031 46.601562 8.4375 C 46.566406 8.539062 46.554688 8.648438 46.566406 8.753906 L 46.566406 10.667969 L 45.921875 10.667969 Z M 45.921875 7.398438 " fill-opacity="1" fill-rule="nonzero"/><path fill="#ffffff" d="M 49.726562 6.125 L 50.371094 6.125 L 50.371094 10.667969 L 49.726562 10.667969 Z M 49.726562 6.125 " fill-opacity="1" fill-rule="nonzero"/><path fill="#ffffff" d="M 51.269531 9.03125 C 51.246094 8.816406 51.269531 8.601562 51.339844 8.394531 C 51.410156 8.1875 51.515625 8.003906 51.664062 7.84375 C 51.808594 7.683594 51.984375 7.558594 52.183594 7.46875 C 52.382812 7.378906 52.589844 7.335938 52.808594 7.335938 C 53.027344 7.335938 53.234375 7.378906 53.4375 7.46875 C 53.636719 7.558594 53.808594 7.683594 53.953125 7.84375 C 54.101562 8.003906 54.210938 8.1875 54.277344 8.394531 C 54.347656 8.601562 54.371094 8.816406 54.351562 9.03125 C 54.371094 9.25 54.347656 9.460938 54.277344 9.667969 C 54.210938 9.875 54.101562 10.0625 53.957031 10.222656 C 53.808594 10.382812 53.636719 10.511719 53.4375 10.597656 C 53.238281 10.6875 53.027344 10.730469 52.808594 10.730469 C 52.589844 10.730469 52.382812 10.6875 52.183594 10.597656 C 51.980469 10.511719 51.808594 10.382812 51.664062 10.222656 C 51.515625 10.0625 51.40625 9.875 51.339844 9.667969 C 51.269531 9.460938 51.246094 9.25 51.269531 9.03125 Z M 53.6875 9.03125 C 53.6875 8.324219 53.367188 7.910156 52.808594 7.910156 C 52.25 7.910156 51.933594 8.324219 51.933594 9.03125 C 51.933594 9.746094 52.25 10.15625 52.808594 10.15625 C 53.367188 10.15625 53.6875 9.742188 53.6875 9.03125 Z M 53.6875 9.03125 " fill-opacity="1" fill-rule="nonzero"/><path fill="#ffffff" d="M 55.03125 9.742188 C 55.03125 9.15625 55.46875 8.816406 56.246094 8.769531 L 57.128906 8.71875 L 57.128906 8.433594 C 57.128906 8.089844 56.902344 7.894531 56.460938 7.894531 C 56.101562 7.894531 55.851562 8.027344 55.78125 8.257812 L 55.15625 8.257812 C 55.222656 7.695312 55.75 7.335938 56.492188 7.335938 C 57.308594 7.335938 57.773438 7.746094 57.773438 8.433594 L 57.773438 10.667969 L 57.152344 10.667969 L 57.152344 10.207031 L 57.101562 10.207031 C 56.875 10.570312 56.546875 10.742188 56.117188 10.722656 C 55.980469 10.734375 55.84375 10.722656 55.710938 10.679688 C 55.578125 10.636719 55.460938 10.566406 55.355469 10.472656 C 55.253906 10.382812 55.171875 10.269531 55.117188 10.144531 C 55.058594 10.015625 55.03125 9.882812 55.03125 9.742188 Z M 57.128906 9.464844 L 57.128906 9.191406 L 56.332031 9.242188 C 55.882812 9.273438 55.679688 9.425781 55.679688 9.714844 C 55.679688 10.007812 55.933594 10.179688 56.285156 10.179688 C 56.5 10.199219 56.691406 10.140625 56.859375 10 C 57.023438 9.859375 57.117188 9.679688 57.128906 9.464844 Z M 57.128906 9.464844 " fill-opacity="1" fill-rule="nonzero"/><path fill="#ffffff" d="M 58.621094 9.03125 C 58.621094 8 59.152344 7.34375 59.976562 7.34375 C 60.183594 7.335938 60.378906 7.382812 60.5625 7.488281 C 60.742188 7.589844 60.882812 7.734375 60.980469 7.917969 L 61.027344 7.917969 L 61.027344 6.125 L 61.671875 6.125 L 61.671875 10.667969 L 61.054688 10.667969 L 61.054688 10.152344 L 61.003906 10.152344 C 60.777344 10.546875 60.433594 10.738281 59.976562 10.722656 C 59.144531 10.722656 58.621094 10.066406 58.621094 9.03125 Z M 59.285156 9.03125 C 59.285156 9.726562 59.613281 10.144531 60.160156 10.144531 C 60.703125 10.144531 61.039062 9.71875 61.039062 9.035156 C 61.039062 8.355469 60.699219 7.925781 60.160156 7.925781 C 59.617188 7.925781 59.285156 8.34375 59.285156 9.03125 Z M 59.285156 9.03125 " fill-opacity="1" fill-rule="nonzero"/><path fill="#ffffff" d="M 64.339844 9.03125 C 64.320312 8.816406 64.34375 8.601562 64.414062 8.394531 C 64.480469 8.1875 64.589844 8.003906 64.738281 7.84375 C 64.882812 7.683594 65.054688 7.558594 65.253906 7.46875 C 65.457031 7.378906 65.664062 7.335938 65.882812 7.335938 C 66.101562 7.335938 66.308594 7.378906 66.507812 7.46875 C 66.707031 7.558594 66.882812 7.683594 67.027344 7.84375 C 67.175781 8.003906 67.28125 8.1875 67.351562 8.394531 C 67.421875 8.601562 67.445312 8.816406 67.421875 9.03125 C 67.445312 9.25 67.421875 9.460938 67.351562 9.667969 C 67.285156 9.875 67.175781 10.0625 67.027344 10.222656 C 66.882812 10.382812 66.710938 10.511719 66.507812 10.597656 C 66.308594 10.6875 66.101562 10.730469 65.882812 10.730469 C 65.664062 10.730469 65.453125 10.6875 65.253906 10.597656 C 65.054688 10.511719 64.882812 10.382812 64.734375 10.222656 C 64.589844 10.0625 64.480469 9.875 64.414062 9.667969 C 64.34375 9.460938 64.320312 9.25 64.339844 9.03125 Z M 66.761719 9.03125 C 66.761719 8.324219 66.441406 7.910156 65.882812 7.910156 C 65.324219 7.910156 65.007812 8.324219 65.007812 9.03125 C 65.007812 9.746094 65.324219 10.15625 65.882812 10.15625 C 66.441406 10.15625 66.761719 9.742188 66.761719 9.03125 Z M 66.761719 9.03125 " fill-opacity="1" fill-rule="nonzero"/><path fill="#ffffff" d="M 68.289062 7.398438 L 68.910156 7.398438 L 68.910156 7.917969 L 68.957031 7.917969 C 69.042969 7.726562 69.171875 7.578125 69.351562 7.472656 C 69.53125 7.363281 69.726562 7.320312 69.933594 7.335938 C 70.09375 7.324219 70.25 7.347656 70.402344 7.40625 C 70.550781 7.464844 70.679688 7.554688 70.792969 7.671875 C 70.902344 7.789062 70.980469 7.925781 71.027344 8.082031 C 71.074219 8.234375 71.089844 8.390625 71.066406 8.550781 L 71.066406 10.667969 L 70.417969 10.667969 L 70.417969 8.714844 C 70.417969 8.1875 70.191406 7.925781 69.714844 7.925781 C 69.605469 7.921875 69.5 7.941406 69.398438 7.980469 C 69.296875 8.023438 69.207031 8.082031 69.132812 8.164062 C 69.058594 8.242188 69.003906 8.332031 68.96875 8.4375 C 68.933594 8.539062 68.921875 8.648438 68.933594 8.753906 L 68.933594 10.667969 L 68.289062 10.667969 Z M 68.289062 7.398438 " fill-opacity="1" fill-rule="nonzero"/><path fill="#ffffff" d="M 74.710938 6.585938 L 74.710938 7.414062 L 75.417969 7.414062 L 75.417969 7.957031 L 74.710938 7.957031 L 74.710938 9.636719 C 74.710938 9.980469 74.851562 10.128906 75.171875 10.128906 C 75.253906 10.128906 75.335938 10.125 75.417969 10.117188 L 75.417969 10.652344 C 75.300781 10.671875 75.183594 10.683594 75.066406 10.6875 C 74.347656 10.6875 74.0625 10.433594 74.0625 9.804688 L 74.0625 7.957031 L 73.542969 7.957031 L 73.542969 7.414062 L 74.0625 7.414062 L 74.0625 6.585938 Z M 74.710938 6.585938 " fill-opacity="1" fill-rule="nonzero"/><path fill="#ffffff" d="M 76.296875 6.125 L 76.9375 6.125 L 76.9375 7.925781 L 76.988281 7.925781 C 77.078125 7.730469 77.210938 7.582031 77.394531 7.472656 C 77.578125 7.367188 77.773438 7.320312 77.984375 7.339844 C 78.144531 7.332031 78.300781 7.355469 78.449219 7.417969 C 78.597656 7.476562 78.726562 7.566406 78.835938 7.683594 C 78.945312 7.800781 79.023438 7.9375 79.070312 8.089844 C 79.117188 8.242188 79.132812 8.398438 79.109375 8.558594 L 79.109375 10.667969 L 78.464844 10.667969 L 78.464844 8.71875 C 78.464844 8.195312 78.222656 7.929688 77.765625 7.929688 C 77.652344 7.921875 77.546875 7.9375 77.441406 7.976562 C 77.335938 8.015625 77.242188 8.074219 77.164062 8.152344 C 77.082031 8.234375 77.023438 8.324219 76.984375 8.433594 C 76.949219 8.539062 76.933594 8.648438 76.945312 8.757812 L 76.945312 10.667969 L 76.296875 10.667969 Z M 76.296875 6.125 " fill-opacity="1" fill-rule="nonzero"/><path fill="#ffffff" d="M 82.871094 9.785156 C 82.78125 10.09375 82.601562 10.335938 82.335938 10.515625 C 82.066406 10.695312 81.773438 10.765625 81.457031 10.730469 C 81.238281 10.738281 81.027344 10.695312 80.828125 10.609375 C 80.628906 10.523438 80.457031 10.398438 80.308594 10.238281 C 80.164062 10.074219 80.058594 9.890625 79.996094 9.679688 C 79.933594 9.472656 79.917969 9.261719 79.945312 9.042969 C 79.917969 8.828125 79.933594 8.613281 79.996094 8.40625 C 80.0625 8.195312 80.164062 8.011719 80.308594 7.847656 C 80.453125 7.683594 80.625 7.554688 80.824219 7.46875 C 81.023438 7.378906 81.234375 7.335938 81.453125 7.335938 C 82.363281 7.335938 82.910156 7.957031 82.910156 8.984375 L 82.910156 9.210938 L 80.601562 9.210938 L 80.601562 9.246094 C 80.59375 9.367188 80.609375 9.484375 80.648438 9.601562 C 80.6875 9.714844 80.75 9.816406 80.832031 9.90625 C 80.914062 9.996094 81.011719 10.0625 81.121094 10.113281 C 81.234375 10.160156 81.351562 10.183594 81.472656 10.179688 C 81.820312 10.222656 82.082031 10.089844 82.25 9.785156 Z M 80.601562 8.730469 L 82.253906 8.730469 C 82.261719 8.621094 82.246094 8.511719 82.210938 8.410156 C 82.171875 8.304688 82.117188 8.210938 82.039062 8.128906 C 81.960938 8.050781 81.871094 7.988281 81.769531 7.945312 C 81.667969 7.902344 81.558594 7.882812 81.449219 7.886719 C 81.214844 7.882812 81.011719 7.964844 80.847656 8.128906 C 80.679688 8.296875 80.601562 8.496094 80.601562 8.730469 Z M 80.601562 8.730469 " fill-opacity="1" fill-rule="nonzero"/><g clip-path="url(#3128203e05)"><g clip-path="url(#ca2622a007)"><g transform="matrix(1, 0, 0, 1, 11, 5)"><g clip-path="url(#8632cf684d)"><g clip-path="url(#266082c63c)"><g clip-path="url(#3f456a9f68)"><path fill="#000000" d="M 0.628906 0.804688 L 16.59375 0.804688 L 16.59375 18.832031 L 0.628906 18.832031 Z M 0.628906 0.804688 " fill-opacity="1" fill-rule="nonzero"/></g></g></g></g></g></g><g clip-path="url(#2817b79149)"><path fill="#8bad22" d="M 12.054688 20.261719 C 12.226562 21.914062 14.074219 25.089844 18.804688 25.101562 C 23.578125 25.113281 25.199219 22.152344 25.492188 20.457031 C 26.132812 16.746094 23.738281 15.003906 22.824219 11.855469 C 22.578125 11.011719 21.808594 7.398438 18.804688 7.398438 C 15.753906 7.398438 15.0625 10.898438 14.929688 11.53125 C 14.160156 15.1875 11.636719 16.214844 12.054688 20.261719 " fill-opacity="1" fill-rule="nonzero"/></g><path fill="#7a981d" d="M 22.558594 12.234375 C 22.363281 11.5625 21.796875 8.941406 19.8125 8.300781 C 20.761719 9.339844 21.101562 10.875 21.246094 11.367188 C 22.085938 14.25 24.273438 15.839844 23.6875 19.238281 C 23.417969 20.789062 21.9375 23.496094 17.570312 23.484375 C 16.261719 23.480469 15.199219 23.214844 14.339844 22.800781 C 15.324219 23.671875 16.796875 24.347656 18.882812 24.355469 C 23.25 24.363281 24.730469 21.65625 25 20.105469 C 25.585938 16.710938 23.398438 15.117188 22.558594 12.234375 " fill-opacity="1" fill-rule="nonzero"/><path fill="#a0c334" d="M 14.339844 22.195312 C 13.230469 21.097656 11.972656 18.972656 13.949219 16.328125 C 13.1875 18.640625 13.4375 20.382812 14.339844 22.195312 " fill-opacity="1" fill-rule="nonzero"/><path fill="#7d9b1e" d="M 19.550781 8.003906 C 19.550781 8.167969 19.136719 8.300781 18.625 8.300781 C 18.113281 8.300781 17.695312 8.167969 17.695312 8.003906 C 17.695312 7.839844 18.113281 7.707031 18.625 7.707031 C 19.136719 7.707031 19.550781 7.839844 19.550781 8.003906 " fill-opacity="1" fill-rule="nonzero"/><g clip-path="url(#b99461f56e)"><path fill="#358d47" d="M 18.867188 6.8125 C 18.867188 6.8125 19.097656 5.558594 20.078125 4.863281 C 20.984375 4.21875 21.351562 4.992188 23.015625 4.066406 C 23.015625 4.066406 22.132812 8.234375 18.867188 6.8125 " fill-opacity="1" fill-rule="nonzero"/><path fill="#2e7a3d" d="M 18.972656 6.4375 C 18.894531 6.664062 18.867188 6.8125 18.867188 6.8125 C 22.132812 8.234375 23.015625 4.066406 23.015625 4.066406 C 22.964844 4.089844 22.917969 4.117188 22.871094 4.140625 C 22.519531 5.1875 21.449219 7.441406 18.972656 6.4375 " fill-opacity="1" fill-rule="nonzero"/></g><g clip-path="url(#f9a60d4d06)"><path fill="#734a3f" d="M 18.832031 7.941406 C 19.054688 7.152344 19.152344 6.328125 19.109375 5.511719 C 19.101562 5.328125 19.085938 5.148438 19.0625 4.964844 C 19.027344 4.65625 18.980469 4.238281 18.609375 4.152344 C 18.484375 4.121094 18.3125 4.125 18.222656 4.230469 C 18.09375 4.378906 18.207031 4.609375 18.261719 4.761719 C 18.425781 5.222656 18.429688 5.71875 18.457031 6.199219 C 18.484375 6.722656 18.492188 7.25 18.460938 7.777344 C 18.457031 7.878906 18.457031 8.007812 18.558594 8.066406 C 18.667969 8.132812 18.796875 8.058594 18.832031 7.941406 " fill-opacity="1" fill-rule="nonzero"/></g><g clip-path="url(#085cb3b0ca)"><g clip-path="url(#67d231e539)"><g transform="matrix(1, 0, 0, 1, 30, 12)"><g clip-path="url(#4f362e559f)"><g clip-path="url(#9bdee5d89c)"><g clip-path="url(#f0ea333f24)"><path fill="#000000" d="M 0.664062 0.917969 L 58.597656 0.917969 L 58.597656 13.695312 L 0.664062 13.695312 Z M 0.664062 0.917969 " fill-opacity="1" fill-rule="nonzero"/></g></g></g></g></g></g><g transform="matrix(1, 0, 0, 1, 33, 10)"><g clip-path="url(#42e1d548eb)"><g fill="#ffffff" fill-opacity="1"><g transform="translate(0.809126, 11.311618)"><g><path d="M 2.1875 -3.4375 L 2.640625 -3.4375 C 3.066406 -3.4375 3.382812 -3.519531 3.59375 -3.6875 C 3.800781 -3.851562 3.90625 -4.09375 3.90625 -4.40625 C 3.90625 -4.726562 3.816406 -4.96875 3.640625 -5.125 C 3.460938 -5.28125 3.1875 -5.359375 2.8125 -5.359375 L 2.1875 -5.359375 Z M 5.296875 -4.453125 C 5.296875 -3.753906 5.078125 -3.222656 4.640625 -2.859375 C 4.203125 -2.492188 3.582031 -2.3125 2.78125 -2.3125 L 2.1875 -2.3125 L 2.1875 0 L 0.8125 0 L 0.8125 -6.484375 L 2.890625 -6.484375 C 3.671875 -6.484375 4.265625 -6.3125 4.671875 -5.96875 C 5.085938 -5.632812 5.296875 -5.128906 5.296875 -4.453125 Z M 5.296875 -4.453125 "/></g></g></g><g fill="#ffffff" fill-opacity="1"><g transform="translate(6.512277, 11.311618)"><g><path d="M 2.765625 -4.09375 C 2.472656 -4.09375 2.242188 -4 2.078125 -3.8125 C 1.921875 -3.632812 1.832031 -3.378906 1.8125 -3.046875 L 3.703125 -3.046875 C 3.703125 -3.378906 3.613281 -3.632812 3.4375 -3.8125 C 3.269531 -4 3.046875 -4.09375 2.765625 -4.09375 Z M 2.953125 0.09375 C 2.148438 0.09375 1.523438 -0.125 1.078125 -0.5625 C 0.628906 -1.007812 0.40625 -1.632812 0.40625 -2.4375 C 0.40625 -3.269531 0.613281 -3.910156 1.03125 -4.359375 C 1.445312 -4.816406 2.019531 -5.046875 2.75 -5.046875 C 3.445312 -5.046875 3.988281 -4.847656 4.375 -4.453125 C 4.769531 -4.054688 4.96875 -3.503906 4.96875 -2.796875 L 4.96875 -2.140625 L 1.78125 -2.140625 C 1.789062 -1.753906 1.898438 -1.453125 2.109375 -1.234375 C 2.328125 -1.023438 2.628906 -0.921875 3.015625 -0.921875 C 3.316406 -0.921875 3.597656 -0.953125 3.859375 -1.015625 C 4.128906 -1.078125 4.40625 -1.175781 4.6875 -1.3125 L 4.6875 -0.265625 C 4.457031 -0.140625 4.207031 -0.0507812 3.9375 0 C 3.664062 0.0625 3.335938 0.09375 2.953125 0.09375 Z M 2.953125 0.09375 "/></g></g></g><g fill="#ffffff" fill-opacity="1"><g transform="translate(11.878383, 11.311618)"><g><path d="M 3.859375 0 L 3.59375 -0.671875 L 3.5625 -0.671875 C 3.332031 -0.390625 3.097656 -0.191406 2.859375 -0.078125 C 2.617188 0.0351562 2.304688 0.09375 1.921875 0.09375 C 1.441406 0.09375 1.0625 -0.0390625 0.78125 -0.3125 C 0.507812 -0.59375 0.375 -0.984375 0.375 -1.484375 C 0.375 -2.003906 0.554688 -2.390625 0.921875 -2.640625 C 1.296875 -2.890625 1.851562 -3.03125 2.59375 -3.0625 L 3.453125 -3.078125 L 3.453125 -3.296875 C 3.453125 -3.804688 3.195312 -4.0625 2.6875 -4.0625 C 2.289062 -4.0625 1.828125 -3.941406 1.296875 -3.703125 L 0.84375 -4.609375 C 1.414062 -4.910156 2.046875 -5.0625 2.734375 -5.0625 C 3.398438 -5.0625 3.910156 -4.914062 4.265625 -4.625 C 4.617188 -4.332031 4.796875 -3.890625 4.796875 -3.296875 L 4.796875 0 Z M 3.453125 -2.296875 L 2.9375 -2.28125 C 2.539062 -2.269531 2.242188 -2.195312 2.046875 -2.0625 C 1.859375 -1.9375 1.765625 -1.738281 1.765625 -1.46875 C 1.765625 -1.09375 1.984375 -0.90625 2.421875 -0.90625 C 2.734375 -0.90625 2.984375 -0.992188 3.171875 -1.171875 C 3.359375 -1.347656 3.453125 -1.585938 3.453125 -1.890625 Z M 3.453125 -2.296875 "/></g></g></g><g fill="#ffffff" fill-opacity="1"><g transform="translate(17.364242, 11.311618)"><g><path d="M 3.46875 -5.046875 C 3.65625 -5.046875 3.8125 -5.035156 3.9375 -5.015625 L 3.828125 -3.734375 C 3.722656 -3.765625 3.59375 -3.78125 3.4375 -3.78125 C 3 -3.78125 2.660156 -3.671875 2.421875 -3.453125 C 2.179688 -3.234375 2.0625 -2.921875 2.0625 -2.515625 L 2.0625 0 L 0.703125 0 L 0.703125 -4.953125 L 1.734375 -4.953125 L 1.9375 -4.125 L 2 -4.125 C 2.15625 -4.40625 2.363281 -4.628906 2.625 -4.796875 C 2.882812 -4.960938 3.164062 -5.046875 3.46875 -5.046875 Z M 3.46875 -5.046875 "/></g></g></g><g fill="#ffffff" fill-opacity="1"><g transform="translate(21.488605, 11.311618)"><g/></g></g><g fill="#ffffff" fill-opacity="1"><g transform="translate(23.847918, 11.311618)"><g><path d="M 4.171875 -1.46875 C 4.171875 -0.957031 3.992188 -0.566406 3.640625 -0.296875 C 3.285156 -0.0351562 2.753906 0.09375 2.046875 0.09375 C 1.691406 0.09375 1.382812 0.0664062 1.125 0.015625 C 0.875 -0.0351562 0.640625 -0.109375 0.421875 -0.203125 L 0.421875 -1.3125 C 0.671875 -1.195312 0.953125 -1.097656 1.265625 -1.015625 C 1.578125 -0.941406 1.851562 -0.90625 2.09375 -0.90625 C 2.582031 -0.90625 2.828125 -1.046875 2.828125 -1.328125 C 2.828125 -1.429688 2.796875 -1.515625 2.734375 -1.578125 C 2.671875 -1.648438 2.554688 -1.726562 2.390625 -1.8125 C 2.234375 -1.894531 2.023438 -1.992188 1.765625 -2.109375 C 1.378906 -2.265625 1.097656 -2.410156 0.921875 -2.546875 C 0.742188 -2.679688 0.613281 -2.835938 0.53125 -3.015625 C 0.445312 -3.191406 0.40625 -3.410156 0.40625 -3.671875 C 0.40625 -4.109375 0.578125 -4.445312 0.921875 -4.6875 C 1.265625 -4.925781 1.75 -5.046875 2.375 -5.046875 C 2.96875 -5.046875 3.546875 -4.914062 4.109375 -4.65625 L 3.703125 -3.6875 C 3.453125 -3.789062 3.21875 -3.875 3 -3.9375 C 2.789062 -4.007812 2.570312 -4.046875 2.34375 -4.046875 C 1.945312 -4.046875 1.75 -3.9375 1.75 -3.71875 C 1.75 -3.601562 1.8125 -3.5 1.9375 -3.40625 C 2.070312 -3.320312 2.351562 -3.191406 2.78125 -3.015625 C 3.175781 -2.859375 3.460938 -2.710938 3.640625 -2.578125 C 3.816406 -2.441406 3.945312 -2.285156 4.03125 -2.109375 C 4.125 -1.929688 4.171875 -1.71875 4.171875 -1.46875 Z M 4.171875 -1.46875 "/></g></g></g><g fill="#ffffff" fill-opacity="1"><g transform="translate(28.362543, 11.311618)"><g><path d="M 2.796875 -0.984375 C 3.035156 -0.984375 3.316406 -1.035156 3.640625 -1.140625 L 3.640625 -0.140625 C 3.304688 0.015625 2.894531 0.09375 2.40625 0.09375 C 1.863281 0.09375 1.46875 -0.0390625 1.21875 -0.3125 C 0.976562 -0.59375 0.859375 -1.003906 0.859375 -1.546875 L 0.859375 -3.9375 L 0.203125 -3.9375 L 0.203125 -4.515625 L 0.953125 -4.96875 L 1.34375 -6.015625 L 2.203125 -6.015625 L 2.203125 -4.953125 L 3.59375 -4.953125 L 3.59375 -3.9375 L 2.203125 -3.9375 L 2.203125 -1.546875 C 2.203125 -1.359375 2.253906 -1.21875 2.359375 -1.125 C 2.472656 -1.03125 2.617188 -0.984375 2.796875 -0.984375 Z M 2.796875 -0.984375 "/></g></g></g><g fill="#ffffff" fill-opacity="1"><g transform="translate(32.305092, 11.311618)"><g><path d="M 1.78125 -2.484375 C 1.78125 -1.992188 1.859375 -1.625 2.015625 -1.375 C 2.179688 -1.125 2.445312 -1 2.8125 -1 C 3.175781 -1 3.4375 -1.125 3.59375 -1.375 C 3.75 -1.625 3.828125 -1.992188 3.828125 -2.484375 C 3.828125 -2.972656 3.742188 -3.335938 3.578125 -3.578125 C 3.421875 -3.828125 3.164062 -3.953125 2.8125 -3.953125 C 2.445312 -3.953125 2.179688 -3.832031 2.015625 -3.59375 C 1.859375 -3.351562 1.78125 -2.984375 1.78125 -2.484375 Z M 5.21875 -2.484375 C 5.21875 -1.679688 5.003906 -1.050781 4.578125 -0.59375 C 4.148438 -0.132812 3.554688 0.09375 2.796875 0.09375 C 2.316406 0.09375 1.894531 -0.0078125 1.53125 -0.21875 C 1.175781 -0.425781 0.898438 -0.722656 0.703125 -1.109375 C 0.503906 -1.503906 0.40625 -1.960938 0.40625 -2.484375 C 0.40625 -3.296875 0.613281 -3.925781 1.03125 -4.375 C 1.457031 -4.820312 2.054688 -5.046875 2.828125 -5.046875 C 3.296875 -5.046875 3.710938 -4.941406 4.078125 -4.734375 C 4.441406 -4.523438 4.722656 -4.226562 4.921875 -3.84375 C 5.117188 -3.457031 5.21875 -3.003906 5.21875 -2.484375 Z M 5.21875 -2.484375 "/></g></g></g><g fill="#ffffff" fill-opacity="1"><g transform="translate(37.928417, 11.311618)"><g><path d="M 3.46875 -5.046875 C 3.65625 -5.046875 3.8125 -5.035156 3.9375 -5.015625 L 3.828125 -3.734375 C 3.722656 -3.765625 3.59375 -3.78125 3.4375 -3.78125 C 3 -3.78125 2.660156 -3.671875 2.421875 -3.453125 C 2.179688 -3.234375 2.0625 -2.921875 2.0625 -2.515625 L 2.0625 0 L 0.703125 0 L 0.703125 -4.953125 L 1.734375 -4.953125 L 1.9375 -4.125 L 2 -4.125 C 2.15625 -4.40625 2.363281 -4.628906 2.625 -4.796875 C 2.882812 -4.960938 3.164062 -5.046875 3.46875 -5.046875 Z M 3.46875 -5.046875 "/></g></g></g><g fill="#ffffff" fill-opacity="1"><g transform="translate(42.05278, 11.311618)"><g><path d="M 2.765625 -4.09375 C 2.472656 -4.09375 2.242188 -4 2.078125 -3.8125 C 1.921875 -3.632812 1.832031 -3.378906 1.8125 -3.046875 L 3.703125 -3.046875 C 3.703125 -3.378906 3.613281 -3.632812 3.4375 -3.8125 C 3.269531 -4 3.046875 -4.09375 2.765625 -4.09375 Z M 2.953125 0.09375 C 2.148438 0.09375 1.523438 -0.125 1.078125 -0.5625 C 0.628906 -1.007812 0.40625 -1.632812 0.40625 -2.4375 C 0.40625 -3.269531 0.613281 -3.910156 1.03125 -4.359375 C 1.445312 -4.816406 2.019531 -5.046875 2.75 -5.046875 C 3.445312 -5.046875 3.988281 -4.847656 4.375 -4.453125 C 4.769531 -4.054688 4.96875 -3.503906 4.96875 -2.796875 L 4.96875 -2.140625 L 1.78125 -2.140625 C 1.789062 -1.753906 1.898438 -1.453125 2.109375 -1.234375 C 2.328125 -1.023438 2.628906 -0.921875 3.015625 -0.921875 C 3.316406 -0.921875 3.597656 -0.953125 3.859375 -1.015625 C 4.128906 -1.078125 4.40625 -1.175781 4.6875 -1.3125 L 4.6875 -0.265625 C 4.457031 -0.140625 4.207031 -0.0507812 3.9375 0 C 3.664062 0.0625 3.335938 0.09375 2.953125 0.09375 Z M 2.953125 0.09375 "/></g></g></g></g></g></svg>