<svg version="1.1" xmlns="http://www.w3.org/2000/svg" xmlns:xlink="http://www.w3.org/1999/xlink" width="381.80043" height="232.06248" viewBox="0,0,381.80043,232.06248"><g transform="translate(-11.28119,-28.13999)"><g data-paper-data="{&quot;isPaintingLayer&quot;:true}" stroke-miterlimit="10" stroke-dasharray="" stroke-dashoffset="0" style="mix-blend-mode: normal"><g fill="#ffffff" fill-rule="evenodd" stroke="#ffffff" stroke-width="9"><path d="M266.186,142.48454c-0.23845,-8.77381 6.70481,-16.10505 15.47863,-16.34351c4.45505,-0.12108 8.55044,1.58732 11.49597,4.50986c2.78243,-3.0782 6.77891,-5.00654 11.23402,-5.12763c8.77381,-0.23846 16.10505,6.7048 16.34351,15.47862c0.01606,0.591 -0.01339,1.1832 -0.04275,1.77542c-1.09934,18.13634 -26.30664,33.06099 -26.30664,33.06099c0,0 -25.98075,-13.53336 -28.0636,-31.58327c-0.06154,-0.58976 -0.12307,-1.17948 -0.13915,-1.77046" data-paper-data="{&quot;index&quot;:null}" stroke-linecap="round" stroke-linejoin="round"/><path d="M363.00383,165.56176c-0.53419,-0.26337 -1.15975,-0.24639 -1.67884,0.04561l-14.84672,8.32493c-1.30238,0.7349 -2.88093,-0.34654 -2.66564,-1.82809l2.41991,-16.85077c0.08309,-0.58678 -0.12468,-1.17837 -0.56363,-1.5817l-12.50566,-11.54537c-1.1008,-1.01457 -0.55649,-2.84685 0.91539,-3.10403l16.77321,-2.90256c0.58497,-0.10214 1.08247,-0.48301 1.32969,-1.02311l7.1146,-15.46433c0.62748,-1.3586 2.5393,-1.41054 3.23644,-0.08796l7.94726,15.05498c0.27624,0.52592 0.79372,0.87916 1.38331,0.94939l16.90612,1.98719c1.48363,0.17688 2.12348,1.97696 1.08265,3.04973l-11.8633,12.2077c-0.41325,0.42645 -0.59168,1.02859 -0.4737,1.6099l3.33165,16.69443c0.2922,1.46773 -1.22527,2.63334 -2.56564,1.97027l-15.27698,-7.50619z" data-paper-data="{&quot;index&quot;:null}" stroke-linecap="butt" stroke-linejoin="miter"/><path d="M237.79571,141.56447c9.2092,4.08227 15.82172,14.06421 16.14369,25.91079c0.42894,15.78229 -49.59423,17.14189 -50.02318,1.35958c-0.01497,-0.55098 -0.02994,-1.10201 0.03373,-1.65512c0.11402,-5.95046 1.85448,-11.47244 4.72584,-15.96178c2.53211,-3.92859 5.95141,-7.09373 9.95271,-9.13237c-3.30024,-2.58865 -5.37722,-6.54963 -5.50024,-11.07572c-0.22249,-8.18633 6.20989,-14.97811 14.35681,-15.19954c8.18625,-0.22249 14.97803,6.20986 15.20051,14.3962c0.12193,4.48658 -1.77499,8.59486 -4.89005,11.35779z" data-paper-data="{&quot;index&quot;:null}" stroke-linecap="round" stroke-linejoin="round"/></g><path d="M266.186,142.48454c-0.23845,-8.77381 6.70481,-16.10505 15.47863,-16.34351c4.45505,-0.12108 8.55044,1.58732 11.49597,4.50986c2.78243,-3.0782 6.77891,-5.00654 11.23402,-5.12763c8.77381,-0.23846 16.10505,6.7048 16.34351,15.47862c0.01606,0.591 -0.01339,1.1832 -0.04275,1.77542c-1.09934,18.13634 -26.30664,33.06099 -26.30664,33.06099c0,0 -25.98075,-13.53336 -28.0636,-31.58327c-0.06154,-0.58976 -0.12307,-1.17948 -0.13915,-1.77046" data-paper-data="{&quot;index&quot;:null}" fill="#ff2a4e" fill-rule="evenodd" stroke="none" stroke-width="0" stroke-linecap="round" stroke-linejoin="round"/><path d="M363.00383,165.56176c-0.53419,-0.26337 -1.15975,-0.24639 -1.67884,0.04561l-14.84672,8.32493c-1.30238,0.7349 -2.88093,-0.34654 -2.66564,-1.82809l2.41991,-16.85077c0.08309,-0.58678 -0.12468,-1.17837 -0.56363,-1.5817l-12.50566,-11.54537c-1.1008,-1.01457 -0.55649,-2.84685 0.91539,-3.10403l16.77321,-2.90256c0.58497,-0.10214 1.08247,-0.48301 1.32969,-1.02311l7.1146,-15.46433c0.62748,-1.3586 2.5393,-1.41054 3.23644,-0.08796l7.94726,15.05498c0.27624,0.52592 0.79372,0.87916 1.38331,0.94939l16.90612,1.98719c1.48363,0.17688 2.12348,1.97696 1.08265,3.04973l-11.8633,12.2077c-0.41325,0.42645 -0.59168,1.02859 -0.4737,1.6099l3.33165,16.69443c0.2922,1.46773 -1.22527,2.63334 -2.56564,1.97027l-15.27698,-7.50619z" data-paper-data="{&quot;index&quot;:null}" fill="#ffd800" fill-rule="evenodd" stroke="none" stroke-width="1" stroke-linecap="butt" stroke-linejoin="miter"/><path d="M237.79571,141.56447c9.2092,4.08227 15.82172,14.06421 16.14369,25.91079c0.42894,15.78229 -49.59423,17.14189 -50.02318,1.35958c-0.01497,-0.55098 -0.02994,-1.10201 0.03373,-1.65512c0.11402,-5.95046 1.85448,-11.47244 4.72584,-15.96178c2.53211,-3.92859 5.95141,-7.09373 9.95271,-9.13237c-3.30024,-2.58865 -5.37722,-6.54963 -5.50024,-11.07572c-0.22249,-8.18633 6.20989,-14.97811 14.35681,-15.19954c8.18625,-0.22249 14.97803,6.20986 15.20051,14.3962c0.12193,4.48658 -1.77499,8.59486 -4.89005,11.35779z" data-paper-data="{&quot;index&quot;:null}" fill="#4c97ff" fill-rule="evenodd" stroke="none" stroke-width="0" stroke-linecap="round" stroke-linejoin="round"/><text transform="translate(206.15213,216.90283) scale(0.78169,0.78169)" font-size="40" xml:space="preserve" fill="#ff0000" fill-rule="nonzero" stroke="#000000" stroke-width="1" stroke-linecap="butt" stroke-linejoin="miter" stroke-miterlimit="10" stroke-dasharray="" stroke-dashoffset="0" font-family="Sans Serif" font-weight="normal" text-anchor="start" style="mix-blend-mode: normal"><tspan x="0" dy="0">For Part 5!!!</tspan></text><text transform="translate(199.14013,250.43135) scale(0.78169,0.78169)" font-size="40" xml:space="preserve" fill="#ff0000" fill-rule="nonzero" stroke="#000000" stroke-width="1" stroke-linecap="butt" stroke-linejoin="miter" stroke-miterlimit="10" stroke-dasharray="" stroke-dashoffset="0" font-family="Sans Serif" font-weight="normal" text-anchor="start" style="mix-blend-mode: normal"><tspan x="0" dy="0">(THE FINALE)</tspan></text><text transform="translate(11.28119,61.75266) scale(0.78169,0.78169)" font-size="40" xml:space="preserve" fill="#c40000" fill-rule="nonzero" stroke-opacity="0" stroke="#000000" stroke-width="0" stroke-linecap="butt" stroke-linejoin="miter" stroke-miterlimit="10" stroke-dasharray="" stroke-dashoffset="0" font-family="Sans Serif" font-weight="normal" text-anchor="start" style="mix-blend-mode: normal"><tspan x="0" dy="0">  T̵H̶O̷U̶G̸H̶T̶ ̶Y̷O̵U̷ ̴</tspan><tspan x="0" dy="48px">C̶O̷U̸L̴D̵ ̶K̶I̷L̵L̵ ̵M̵E̷?̸?̴?̶</tspan></text></g></g></svg>