<svg version="1.1" xmlns="http://www.w3.org/2000/svg" xmlns:xlink="http://www.w3.org/1999/xlink" width="613.29833" height="273.13839" viewBox="0,0,613.29833,273.13839"><g transform="translate(68.5,-185.67436)"><g data-paper-data="{&quot;isPaintingLayer&quot;:true}" fill-rule="nonzero" stroke="none" stroke-width="0" stroke-linecap="butt" stroke-linejoin="miter" stroke-miterlimit="10" stroke-dasharray="" stroke-dashoffset="0" style="mix-blend-mode: normal"><path d="M-68.5,334.64286v-80h138.32836v80z" fill="#a5a5a5"/><path d="M-68.5,356.07146v-80h138.32836v80z" fill="#707070"/><path d="M-68.5,426.78573v-129.28571h138.32836v129.28571z" fill="#434343"/><path d="M93.62763,212.4871v-18.29923h46.68237v18.29923z" fill="#a5a5a5"/><path d="M93.62763,217.38868v-18.29922h46.68237v18.29922z" fill="#707070"/><path d="M93.62763,233.56389v-29.57285h46.68237v29.57285z" fill="#434343"/><path d="M68.63213,366.66988v-80h476.1662v80z" fill="#a5a5a5"/><path d="M68.63213,388.09848v-80h476.1662v80z" fill="#707070"/><path d="M68.63213,458.81275v-129.28571h476.1662v129.28571z" fill="#434343"/><path d="M211.24024,203.97359v-18.29923h46.68237v18.29923z" fill="#a5a5a5"/><path d="M211.24024,208.87517v-18.29922h46.68237v18.29922z" fill="#707070"/><path d="M211.24024,225.05038v-29.57285h46.68237v29.57285z" fill="#434343"/><path d="M351.37538,205.46608v-18.29923h46.68237v18.29923z" fill="#a5a5a5"/><path d="M351.37538,210.36766v-18.29922h46.68237v18.29922z" fill="#707070"/><path d="M351.37538,226.54287v-29.57285h46.68237v29.57285z" fill="#434343"/></g></g></svg>