<svg version="1.1" xmlns="http://www.w3.org/2000/svg" xmlns:xlink="http://www.w3.org/1999/xlink" width="569.25928" height="445.81066" viewBox="0,0,569.25928,445.81066"><g transform="translate(68.5,19.02493)"><g data-paper-data="{&quot;isPaintingLayer&quot;:true}" fill-rule="nonzero" stroke="none" stroke-linecap="butt" stroke-linejoin="miter" stroke-miterlimit="10" stroke-dasharray="" stroke-dashoffset="0" style="mix-blend-mode: normal"><path d="M108.22443,164.61888v-80h91.01449v80z" fill="#a5a5a5" stroke-width="0"/><path d="M108.22443,186.04748v-80h91.01449v80z" fill="#707070" stroke-width="0"/><path d="M355.02444,76.25496v80h-60.86245v-80z" fill="#a5a5a5" stroke-width="0"/><path d="M355.02444,54.82636v80h-60.86245v-80z" fill="#707070" stroke-width="0"/><path d="M355.02444,36.11209v77.28571h-60.86245v-77.28571z" fill="#434343" stroke-width="0"/><path d="M-68.5,334.64286v-80h569.25928v80z" fill="#a5a5a5" stroke-width="0"/><path d="M-68.5,356.07146v-80h569.25928v80z" fill="#707070" stroke-width="0"/><path d="M-68.5,426.78573v-129.28571h569.25928v129.28571z" fill="#434343" stroke-width="0"/><path d="M108.22443,307.8527v-180.37666h91.01449v180.37666z" fill="#434343" stroke-width="0"/><path d="M46.55441,73.11794v80h-60.86245v-80z" fill="#a5a5a5" stroke-width="0"/><path d="M46.55441,51.68934v80h-60.86245v-80z" fill="#707070" stroke-width="0"/><path d="M46.55441,-19.02493v129.28571h-60.86245v-129.28571z" fill="#434343" stroke-width="0"/><path d="M474.04065,68.84438v80h-60.86245v-80z" fill="#a5a5a5" stroke-width="0"/><path d="M474.04065,47.41578v80h-60.86245v-80z" fill="#707070" stroke-width="0"/><path d="M474.04065,37.70151v68.28571h-60.86245v-68.28571z" fill="#434343" stroke-width="0"/><text transform="translate(142.5201,335.76875) scale(0.5,0.5)" font-size="40" xml:space="preserve" fill="#00ff33" fill-rule="nonzero" stroke="none" stroke-width="1" stroke-linecap="butt" stroke-linejoin="miter" stroke-miterlimit="10" stroke-dasharray="" stroke-dashoffset="0" font-family="Sans Serif" font-weight="normal" text-anchor="start" style="mix-blend-mode: normal"><tspan x="0" dy="0">(Fake Walls To Help!)</tspan></text></g></g></svg>