<svg version="1.1" xmlns="http://www.w3.org/2000/svg" xmlns:xlink="http://www.w3.org/1999/xlink" width="58.53084" height="55.54937" viewBox="0,0,58.53084,55.54937"><defs><radialGradient cx="240" cy="180" r="29.26542" gradientUnits="userSpaceOnUse" id="color-1"><stop offset="0" stop-color="#fff700"/><stop offset="1" stop-color="#fff700" stop-opacity="0"/></radialGradient></defs><g transform="translate(-210.73458,-152.22531)"><g data-paper-data="{&quot;isPaintingLayer&quot;:true}" fill-rule="nonzero" stroke="none" stroke-width="0" stroke-linecap="butt" stroke-linejoin="miter" stroke-miterlimit="10" stroke-dasharray="" stroke-dashoffset="0" style="mix-blend-mode: normal"><path d="M269.26542,180c0,15.33954 -13.10257,27.77469 -29.26542,27.77469c-16.16284,0 -29.26542,-12.43515 -29.26542,-27.77469c0,-15.33954 13.10257,-27.77469 29.26542,-27.77469c16.16284,0 29.26542,12.43515 29.26542,27.77469z" fill="url(#color-1)"/><path d="M220.10687,191.97165c0,-7.93006 0,-19.57723 0,-24.0471c0,-3.4873 4.36562,-7.81774 7.87219,-7.81774c4.46141,0 16.0276,0 23.93822,0c4.60825,0 7.97597,4.43312 7.97597,7.97641c0,4.465 0,15.96096 0,23.83683c0,4.6055 -4.36855,7.97313 -7.87672,7.97313c-4.48218,0 -16.13172,0 -24.0432,0c-4.55193,0 -7.86644,-3.34056 -7.86644,-7.92153z" fill="#e2ff00"/><path d="M225.85374,180c0,-7.81277 6.3335,-14.14626 14.14627,-14.14626c7.81277,0 14.14627,6.3335 14.14627,14.14627c0,7.81277 -6.3335,14.14627 -14.14626,14.14627c-7.81277,0 -14.14626,-6.3335 -14.14626,-14.14626z" fill="#ffffff"/><path d="M231.74801,180c0,-4.55745 3.69455,-8.25199 8.25199,-8.25199c4.55745,0 8.25199,3.69455 8.25199,8.25199c0,4.55745 -3.69455,8.25199 -8.25199,8.25199c-4.55745,0 -8.25199,-3.69455 -8.25199,-8.25199z" fill="#e2ff00"/><path d="M239.4106,177.78965c0,-1.54628 1.2535,-2.79978 2.79978,-2.79978c1.54628,0 2.79978,1.2535 2.79978,2.79978c0,1.54628 -1.2535,2.79978 -2.79978,2.79978c-1.54628,0 -2.79978,-1.2535 -2.79978,-2.79978z" fill="#ffffff"/></g></g></svg>