<svg version="1.1" xmlns="http://www.w3.org/2000/svg" xmlns:xlink="http://www.w3.org/1999/xlink" width="401.94618" height="252.73424" viewBox="0,0,401.94618,252.73424"><defs><radialGradient cx="179.65302" cy="240.17606" r="17.24039" gradientUnits="userSpaceOnUse" id="color-1"><stop offset="0" stop-color="#c50000"/><stop offset="1" stop-color="#c50000" stop-opacity="0"/></radialGradient><radialGradient cx="132.80337" cy="240.54555" r="17.24039" gradientUnits="userSpaceOnUse" id="color-2"><stop offset="0" stop-color="#c50000"/><stop offset="1" stop-color="#c50000" stop-opacity="0"/></radialGradient><radialGradient cx="156.34997" cy="239.80321" r="17.24039" gradientUnits="userSpaceOnUse" id="color-3"><stop offset="0" stop-color="#c50000"/><stop offset="1" stop-color="#c50000" stop-opacity="0"/></radialGradient><radialGradient cx="118.8101" cy="109.37779" r="17.24039" gradientUnits="userSpaceOnUse" id="color-4"><stop offset="0" stop-color="#c50000"/><stop offset="1" stop-color="#c50000" stop-opacity="0"/></radialGradient><radialGradient cx="79.77268" cy="57.54859" r="17.24039" gradientUnits="userSpaceOnUse" id="color-5"><stop offset="0" stop-color="#c50000"/><stop offset="1" stop-color="#c50000" stop-opacity="0"/></radialGradient><radialGradient cx="62.56954" cy="149.98442" r="17.24039" gradientUnits="userSpaceOnUse" id="color-6"><stop offset="0" stop-color="#c50000"/><stop offset="1" stop-color="#c50000" stop-opacity="0"/></radialGradient><radialGradient cx="236.65301" cy="91.17606" r="17.24039" gradientUnits="userSpaceOnUse" id="color-7"><stop offset="0" stop-color="#c50000"/><stop offset="1" stop-color="#c50000" stop-opacity="0"/></radialGradient><radialGradient cx="298.80338" cy="101.54555" r="17.24039" gradientUnits="userSpaceOnUse" id="color-8"><stop offset="0" stop-color="#c50000"/><stop offset="1" stop-color="#c50000" stop-opacity="0"/></radialGradient><radialGradient cx="194.85747" cy="122.80321" r="17.24039" gradientUnits="userSpaceOnUse" id="color-9"><stop offset="0" stop-color="#c50000"/><stop offset="1" stop-color="#c50000" stop-opacity="0"/></radialGradient><radialGradient cx="340.50335" cy="42.97691" r="17.24039" gradientUnits="userSpaceOnUse" id="color-10"><stop offset="0" stop-color="#c50000"/><stop offset="1" stop-color="#c50000" stop-opacity="0"/></radialGradient><radialGradient cx="209.79703" cy="20.71048" r="17.24039" gradientUnits="userSpaceOnUse" id="color-11"><stop offset="0" stop-color="#c50000"/><stop offset="1" stop-color="#c50000" stop-opacity="0"/></radialGradient></defs><g transform="translate(-38.49217,-5.05169)"><g data-paper-data="{&quot;isPaintingLayer&quot;:true}" fill-rule="nonzero" stroke="none" stroke-width="0" stroke-linecap="butt" stroke-linejoin="miter" stroke-miterlimit="10" stroke-dasharray="" stroke-dashoffset="0" style="mix-blend-mode: normal"><path d="M196.50495,257.41643h-33.70387l16.85193,-34.48078z" data-paper-data="{&quot;index&quot;:null}" fill="url(#color-1)"/><path d="M149.65533,257.78593h-33.70387l16.85194,-34.48078z" data-paper-data="{&quot;index&quot;:null}" fill="url(#color-2)"/><path d="M173.20191,257.0436h-33.70387l16.85194,-34.48078z" data-paper-data="{&quot;index&quot;:null}" fill="url(#color-3)"/><path d="M137.75714,124.2851l-33.41878,4.37448l12.23407,-36.37636z" data-paper-data="{&quot;index&quot;:null}" fill="url(#color-4)"/><path d="M80.44804,81.64761l-24.75272,-22.87474l35.77839,-13.88592z" data-paper-data="{&quot;index&quot;:null}" fill="url(#color-5)"/><path d="M63.24489,174.08344l-24.75272,-22.87474l35.77839,-13.88592z" data-paper-data="{&quot;index&quot;:null}" fill="url(#color-6)"/><path d="M236.27661,115.28159l-23.73145,-23.93259l36.34999,-12.3122z" data-paper-data="{&quot;index&quot;:null}" fill="url(#color-7)"/><path d="M321.71114,109.0591l-29.89741,15.55943l-0.96939,-38.36629z" data-paper-data="{&quot;index&quot;:null}" fill="url(#color-8)"/><path d="M218.94346,121.76217l-22.49641,25.09706l-14.42736,-35.56351z" data-paper-data="{&quot;index&quot;:null}" fill="url(#color-9)"/><path d="M348.59589,65.68658l-30.61193,-14.1018l29.73282,-24.26667z" data-paper-data="{&quot;index&quot;:null}" fill="url(#color-10)"/><path d="M217.88959,43.42016l-30.61193,-14.1018l29.73283,-24.26667z" data-paper-data="{&quot;index&quot;:null}" fill="url(#color-11)"/><path d="M393.75598,232.68211v-18.29923h46.68237v18.29923z" fill="#a5a5a5"/><path d="M393.75598,237.58369v-18.29922h46.68237v18.29922z" fill="#707070"/><path d="M393.75598,253.7589v-29.57285h46.68237v29.57285z" fill="#434343"/></g></g></svg>