<svg version="1.1" xmlns="http://www.w3.org/2000/svg" xmlns:xlink="http://www.w3.org/1999/xlink" width="151.75228" height="104.52289" viewBox="0,0,151.75228,104.52289"><defs><radialGradient cx="421.5572" cy="271.00882" r="37.13909" gradientUnits="userSpaceOnUse" id="color-1"><stop offset="0" stop-color="#000000"/><stop offset="1" stop-color="#000000" stop-opacity="0"/></radialGradient><linearGradient x1="420.47375" y1="246.35665" x2="419.76054" y2="292.91358" gradientUnits="userSpaceOnUse" id="color-2"><stop offset="0" stop-color="#5eeaff"/><stop offset="1" stop-color="#0097fc"/></linearGradient><linearGradient x1="352.18176" y1="284.80102" x2="366.75638" y2="317.4658" gradientUnits="userSpaceOnUse" id="color-3"><stop offset="0" stop-color="#dcf6ff" stop-opacity="0"/><stop offset="1" stop-color="#dcf6ff"/></linearGradient><linearGradient x1="353.84225" y1="281.84671" x2="356.91811" y2="288.74036" gradientUnits="userSpaceOnUse" id="color-4"><stop offset="0" stop-color="#a1e7ff"/><stop offset="1" stop-color="#87e3ff"/></linearGradient><linearGradient x1="355.85632" y1="271.23914" x2="358.70926" y2="277.63333" gradientUnits="userSpaceOnUse" id="color-5"><stop offset="0" stop-color="#a1e7ff"/><stop offset="1" stop-color="#87e3ff"/></linearGradient><linearGradient x1="340.4665" y1="278.10593" x2="343.31943" y2="284.50001" gradientUnits="userSpaceOnUse" id="color-6"><stop offset="0" stop-color="#a1e7ff"/><stop offset="1" stop-color="#87e3ff"/></linearGradient><linearGradient x1="357.34285" y1="284.1733" x2="358.72937" y2="287.28082" gradientUnits="userSpaceOnUse" id="color-7"><stop offset="0" stop-color="#ff4e4e"/><stop offset="1" stop-color="#d31f1f"/></linearGradient></defs><g transform="translate(-306.87274,-232.46716)"><g data-paper-data="{&quot;isPaintingLayer&quot;:true}" fill-rule="nonzero" stroke-linecap="butt" stroke-linejoin="miter" stroke-miterlimit="10" stroke-dasharray="" stroke-dashoffset="0" style="mix-blend-mode: normal"><path d="M384.35108,270.32909c0.31419,-20.50896 17.19465,-36.88006 37.70361,-36.56587c20.50896,0.31419 36.88007,17.19466 36.56588,37.70363c-0.31419,20.50895 -17.19466,36.88006 -37.70363,36.56587c-20.50895,-0.31419 -36.88006,-17.19466 -36.56587,-37.70363z" data-paper-data="{&quot;index&quot;:null}" fill="url(#color-1)" stroke="none" stroke-width="0"/><path d="M396.83863,269.27856c0.19695,-12.85636 10.77876,-23.11885 23.63512,-22.9219c12.85636,0.19695 23.11885,10.77876 22.9219,23.63512c-0.19695,12.85636 -10.77876,23.11885 -23.63512,22.9219c-12.85636,-0.19695 -23.11885,-10.77876 -22.92189,-23.63512z" data-paper-data="{&quot;index&quot;:null}" fill="url(#color-2)" stroke="none" stroke-width="0"/><g data-paper-data="{&quot;index&quot;:null}" fill="#ffffff" stroke="none" stroke-width="0"><path d="M425.20578,261.54433c0.68234,-1.41864 2.38555,-2.01556 3.8042,-1.33323c1.41864,0.68232 2.01555,2.38553 1.3332,3.80417c-0.02419,0.05027 -2.47107,5.12657 -2.47107,5.12657l-5.05706,-2.61601c0,0 2.36655,-4.93124 2.39072,-4.98153z"/><path d="M422.9682,266.20754l5.0445,2.64215c0,0 -4.46707,9.29849 -4.49125,9.34878c-0.68234,1.41868 -2.38556,2.01556 -3.8042,1.33324c-1.41867,-0.68234 -2.01555,-2.38555 -1.33321,-3.8042c0.02418,-0.05024 4.58413,-9.51995 4.58413,-9.51995z" data-paper-data="{&quot;index&quot;:null}"/></g><g data-paper-data="{&quot;index&quot;:null}" fill="#ffffff" stroke="none" stroke-width="0"><path d="M421.97432,274.54785c1.41864,0.68232 2.01555,2.38553 1.33321,3.80417c-0.68234,1.41864 -2.38553,2.01555 -3.80418,1.33321c-0.05027,-0.02419 -5.12658,-2.47107 -5.12658,-2.47107l2.61603,-5.05709c0,0 4.93127,2.36655 4.98155,2.39072z"/><path d="M422.16975,274.64722l-2.64215,5.04451c0,0 -9.29851,-4.46707 -9.34878,-4.49125c-1.41867,-0.68235 -2.01555,-2.38553 -1.3332,-3.80417c0.68235,-1.41867 2.38556,-2.01555 3.80421,-1.33321c0.05027,0.02419 9.51992,4.58415 9.51992,4.58415z" data-paper-data="{&quot;index&quot;:null}"/></g><g data-paper-data="{&quot;index&quot;:null}"><g fill="#4d4d4d" stroke="#207dbb" stroke-width="6"><g><g><path d="M347.40252,311.17404l-25.56576,-57.29815l24.82669,-11.07738c0,0 3.21645,-1.45177 6.73615,0.06015c3.5197,1.51191 5.53726,5.21199 5.53726,5.21199l21.5662,48.3343z"/><path d="M332.79263,317.69281l-21.5662,-48.3343c0,0 -1.40603,-3.97294 -0.18028,-7.6022c1.22576,-3.62929 4.45458,-5.05331 4.45458,-5.05331l24.8267,-11.07739l25.56576,57.29815z" data-paper-data="{&quot;index&quot;:null}"/></g><g data-paper-data="{&quot;index&quot;:null}"><path d="M364.68829,260.96078l21.5662,48.3343c0,0 1.40602,3.97294 0.18027,7.6022c-1.22576,3.62929 -4.45455,5.05331 -4.45455,5.05331l-24.8267,11.07739l-25.56576,-57.29815z"/><path d="M350.07837,267.47947l25.56576,57.29815l-24.82669,11.07739c0,0 -3.21645,1.45177 -6.73615,-0.06015c-3.5197,-1.51191 -5.53725,-5.21198 -5.53725,-5.21198l-21.5662,-48.3343z" data-paper-data="{&quot;index&quot;:null}"/></g></g><g><g><path d="M345.87698,307.75495l-25.56577,-57.29815l24.8267,-11.07738c0,0 3.21644,-1.45177 6.73613,0.06015c3.51968,1.51191 5.53725,5.21199 5.53725,5.21199l21.5662,48.3343z"/><path d="M331.26706,314.27361l-21.5662,-48.3343c0,0 -1.40603,-3.97294 -0.18028,-7.6022c1.22575,-3.62929 4.45457,-5.05331 4.45457,-5.05331l24.8267,-11.07739l25.56576,57.29815z" data-paper-data="{&quot;index&quot;:null}"/></g><g data-paper-data="{&quot;index&quot;:null}"><path d="M363.16271,257.54169l21.5662,48.3343c0,0 1.40603,3.97294 0.18028,7.6022c-1.22576,3.62929 -4.45457,5.05331 -4.45457,5.05331l-24.82669,11.07739l-25.56577,-57.29815z"/><path d="M348.55279,264.06048l25.56577,57.29815l-24.8267,11.07739c0,0 -3.21645,1.45177 -6.73615,-0.06015c-3.5197,-1.51191 -5.53725,-5.21199 -5.53725,-5.21199l-21.5662,-48.3343z" data-paper-data="{&quot;index&quot;:null}"/></g></g></g><g><g fill="#4d4d4d" stroke="#ffffff" stroke-width="6"><g><g><path d="M350.26294,305.39688l-25.56576,-57.29815l24.82669,-11.07739c0,0 3.21645,-1.45177 6.73615,0.06015c3.51968,1.51191 5.53725,5.21198 5.53725,5.21198l21.5662,48.3343z"/><path d="M335.65305,311.91565l-21.5662,-48.3343c0,0 -1.40603,-3.97294 -0.18028,-7.6022c1.22575,-3.62929 4.45457,-5.05331 4.45457,-5.05331l24.82669,-11.07738l25.56577,57.29815z" data-paper-data="{&quot;index&quot;:null}"/></g><g data-paper-data="{&quot;index&quot;:null}"><path d="M367.54867,255.18365l21.5662,48.3343c0,0 1.40603,3.97294 0.1803,7.6022c-1.22575,3.62929 -4.45457,5.05331 -4.45457,5.05331l-24.82669,11.07738l-25.56577,-57.29815z"/><path d="M352.93878,261.70231l25.56577,57.29815l-24.8267,11.07739c0,0 -3.21645,1.45177 -6.73615,-0.06015c-3.5197,-1.51191 -5.53725,-5.21198 -5.53725,-5.21198l-21.5662,-48.33431z" data-paper-data="{&quot;index&quot;:null}"/></g></g><g><g><path d="M348.73737,301.9778l-25.56577,-57.29815l24.8267,-11.07738c0,0 3.21645,-1.45177 6.73615,0.06015c3.51968,1.51191 5.53725,5.21199 5.53725,5.21199l21.5662,48.3343z"/><path d="M334.12747,308.49642l-21.5662,-48.3343c0,0 -1.40603,-3.97294 -0.18028,-7.6022c1.22575,-3.62929 4.45458,-5.05331 4.45458,-5.05331l24.82669,-11.07739l25.56577,57.29815z" data-paper-data="{&quot;index&quot;:null}"/></g><g data-paper-data="{&quot;index&quot;:null}"><path d="M366.0231,251.76454l21.5662,48.3343c0,0 1.40603,3.97294 0.18028,7.6022c-1.22575,3.62929 -4.45455,5.05331 -4.45455,5.05331l-24.82669,11.07738l-25.56577,-57.29815z"/><path d="M351.41321,258.28325l25.56576,57.29815l-24.82669,11.07738c0,0 -3.21645,1.45177 -6.73615,-0.06015c-3.5197,-1.51191 -5.53725,-5.21199 -5.53725,-5.21199l-21.5662,-48.3343z" data-paper-data="{&quot;index&quot;:null}"/></g></g></g><g stroke="none" stroke-width="0"><g fill="#131313"><g><path d="M350.26294,305.39688l-25.56576,-57.29815l24.82669,-11.07739c0,0 3.21645,-1.45177 6.73615,0.06015c3.51968,1.51191 5.53725,5.21198 5.53725,5.21198l21.5662,48.3343z"/><path d="M335.65305,311.91565l-21.5662,-48.3343c0,0 -1.40603,-3.97294 -0.18028,-7.6022c1.22575,-3.62929 4.45457,-5.05331 4.45457,-5.05331l24.82669,-11.07738l25.56577,57.29815z" data-paper-data="{&quot;index&quot;:null}"/></g><g data-paper-data="{&quot;index&quot;:null}"><path d="M367.54868,255.18365l21.5662,48.3343c0,0 1.40603,3.97294 0.18028,7.6022c-1.22576,3.62929 -4.45455,5.05331 -4.45455,5.05331l-24.82672,11.07738l-25.56576,-57.29815z"/><path d="M352.93878,261.70231l25.56577,57.29815l-24.8267,11.07739c0,0 -3.21645,1.45177 -6.73615,-0.06015c-3.51968,-1.51191 -5.53725,-5.21198 -5.53725,-5.21198l-21.5662,-48.3343z" data-paper-data="{&quot;index&quot;:null}"/></g></g><g fill="#222222"><g><path d="M348.73737,301.9778l-25.56577,-57.29815l24.8267,-11.07738c0,0 3.21645,-1.45177 6.73615,0.06015c3.51968,1.51191 5.53725,5.21199 5.53725,5.21199l21.5662,48.3343z"/><path d="M334.12747,308.49642l-21.5662,-48.3343c0,0 -1.40603,-3.97294 -0.18028,-7.6022c1.22575,-3.62929 4.45458,-5.05331 4.45458,-5.05331l24.82669,-11.07739l25.56577,57.29815z" data-paper-data="{&quot;index&quot;:null}"/></g><g data-paper-data="{&quot;index&quot;:null}"><path d="M366.02314,251.76454l21.5662,48.3343c0,0 1.40605,3.97294 0.1803,7.6022c-1.22576,3.62929 -4.45457,5.05331 -4.45457,5.05331l-24.82672,11.07738l-25.56576,-57.29815z"/><path d="M351.41321,258.28325l25.56576,57.29815l-24.82669,11.07738c0,0 -3.21645,1.45177 -6.73615,-0.06015c-3.51968,-1.51191 -5.53725,-5.21199 -5.53725,-5.21199l-21.5662,-48.3343z" data-paper-data="{&quot;index&quot;:null}"/></g></g></g><g data-paper-data="{&quot;index&quot;:null}" fill="#ffffff" stroke="none" stroke-width="0"><path d="M365.19031,258.97746l18.51187,41.48888c0,0 1.20688,3.41025 0.15474,6.52552c-1.05215,3.1153 -3.82367,4.33765 -3.82367,4.33765l-21.31059,9.50852l-21.94495,-49.18321z"/><path d="M352.6496,264.57297l21.94495,49.18321l-21.31059,9.50852c0,0 -2.76089,1.24615 -5.78211,-0.05164c-3.02123,-1.29776 -4.75303,-4.47382 -4.75303,-4.47382l-18.51186,-41.48888z" data-paper-data="{&quot;index&quot;:null}"/></g><g fill="#ffffff" stroke="none" stroke-width="0"><path d="M347.76726,296.28484l-21.94495,-49.18321l21.31059,-9.50852c0,0 2.76087,-1.24615 5.78208,0.05164c3.02121,1.29776 4.75303,4.47382 4.75303,4.47382l18.51186,41.48887z"/><path d="M335.2265,301.88034l-18.51187,-41.48891c0,0 -1.2069,-3.41025 -0.15475,-6.52552c1.05215,-3.11527 3.82369,-4.33762 3.82369,-4.33762l21.31057,-9.50852l21.94495,49.18321z" data-paper-data="{&quot;index&quot;:null}"/></g><g fill="#222222" stroke="none" stroke-width="0"><path d="M329.60598,253.0243c-1.99537,0.89032 -4.3347,-0.00551 -5.225,-2.00089c-0.80488,-1.80391 -1.5863,-3.57216 -1.5863,-3.57216c0,0 3.39573,-1.56743 3.58722,-1.65287c0.14637,-0.06531 9.51483,-4.21467 9.51483,-4.21467l3.25893,7.16163c0,0 -9.43779,4.22905 -9.54961,4.27896z" data-paper-data="{&quot;index&quot;:null}"/><path d="M345.23743,241.71762c0.89032,1.99539 -0.00551,4.33468 -2.00089,5.22499c-0.11184,0.0499 -9.56303,4.24888 -9.56303,4.24888l-3.15304,-7.20891l13.14441,-5.89562c0,0 0.68221,1.63521 1.57252,3.6306z" data-paper-data="{&quot;index&quot;:null}"/></g><path d="M384.04947,306.68398c-0.75717,3.29666 -3.53871,4.64467 -3.53871,4.64467l-27.63703,12.33132c0,0 -2.50441,1.04411 -5.46167,-0.33682c-2.95726,-1.38093 -4.56702,-4.34627 -4.56702,-4.34627l-11.01878,-24.69533l40.85914,-18.62901l11.13976,24.96651c0,0 0.86998,3.2539 0.22433,6.06498z" fill="url(#color-3)" stroke="none" stroke-width="0"/><g stroke="none" stroke-width="0"><g><path d="M360.39796,278.92166c0,0 2.16168,7.30154 -3.54744,9.84889c-5.70911,2.54735 -9.56399,-3.99871 -9.56399,-3.99871l13.11144,-5.85016z" fill="url(#color-4)"/><path d="M360.47986,273.00971c0.78783,1.76569 -0.0049,3.83572 -1.77057,4.62355c-1.76569,0.78783 -3.83573,-0.0049 -4.62356,-1.77056c-0.78783,-1.76568 0.00491,-3.83572 1.77059,-4.62355c1.76568,-0.78783 3.8357,0.0049 4.62353,1.77057z" fill="url(#color-5)"/><path d="M345.09004,279.87638c0.78781,1.76569 -0.0049,3.83573 -1.77057,4.62356c-1.76568,0.78783 -3.8357,-0.00491 -4.62353,-1.77057c-0.78783,-1.76568 0.0049,-3.8357 1.77056,-4.62353c1.76569,-0.78781 3.83572,0.0049 4.62355,1.77056z" fill="url(#color-6)"/></g><g><g><path d="M359.73632,278.59115c0,0 2.16171,7.30152 -3.54744,9.84889c-5.70915,2.54735 -9.56399,-3.99871 -9.56399,-3.99871l13.11144,-5.85016z" fill="#222222"/><path d="M359.90199,283.95867c0,0 -0.29536,1.46488 -1.00587,2.37272c-0.93386,1.19323 -2.22457,1.86754 -2.22457,1.86754c0,0 -0.44972,-0.58782 -0.63147,-0.99514c-0.5914,-1.32547 0.31429,-2.58943 1.63976,-3.18084c0.83295,-0.37165 2.22212,-0.06425 2.22212,-0.06425z" fill="url(#color-7)"/></g><g><path d="M359.81819,272.67921c0.78783,1.76569 -0.0049,3.83573 -1.77056,4.62356c-1.76569,0.78783 -3.83575,-0.0049 -4.62357,-1.77056c-0.78784,-1.76569 0.0049,-3.83573 1.77057,-4.62356c1.76569,-0.78783 3.83573,0.0049 4.62356,1.77057z" fill="#222222"/><g fill="#ffffff"><path d="M356.34746,272.65355c0.40556,0.90894 -0.00252,1.97456 -0.91145,2.38012c-0.90894,0.40556 -1.97457,-0.00252 -2.38012,-0.91143c-0.40556,-0.90894 0.00252,-1.97456 0.91143,-2.38012c0.90894,-0.40556 1.97457,0.00252 2.38012,0.91143z"/><path d="M358.12012,273.7057c0.09565,0.21436 -0.00059,0.46568 -0.21497,0.56133c-0.21436,0.09565 -0.46568,-0.00059 -0.56133,-0.21497c-0.09564,-0.21436 0.00059,-0.46568 0.21497,-0.56133c0.21438,-0.09565 0.46569,0.00059 0.56135,0.21497z"/></g></g><g><path d="M344.42838,279.54603c0.78783,1.76569 -0.0049,3.83575 -1.77057,4.62357c-1.76569,0.78784 -3.83575,-0.0049 -4.62357,-1.77056c-0.78784,-1.76569 0.0049,-3.83573 1.77056,-4.62356c1.76569,-0.78783 3.83573,0.0049 4.62356,1.77056z" fill="#222222"/><g fill="#ffffff"><path d="M339.74734,281.84759c-0.90894,0.40556 -1.97457,-0.00252 -2.38012,-0.91143c-0.40556,-0.90894 0.00252,-1.97456 0.91143,-2.38012c0.90894,-0.40556 1.97457,0.00252 2.38012,0.91143c0.40556,0.90894 -0.00252,1.97456 -0.91143,2.38012z"/><path d="M342.21647,281.08101c-0.21438,0.09565 -0.46571,-0.00062 -0.56136,-0.21497c-0.09564,-0.21436 0.0006,-0.46568 0.21498,-0.56133c0.21439,-0.09565 0.46571,0.00057 0.56136,0.21495c0.09564,0.21439 -0.00063,0.46571 -0.21497,0.56136z"/></g></g></g></g></g></g></g></g></svg>