<svg version="1.1" xmlns="http://www.w3.org/2000/svg" xmlns:xlink="http://www.w3.org/1999/xlink" width="674.55009" height="436.37861" viewBox="0,0,674.55009,436.37861"><defs><linearGradient x1="32.53303" y1="121.57231" x2="32.53303" y2="159.10983" gradientUnits="userSpaceOnUse" id="color-1"><stop offset="0" stop-color="#494949"/><stop offset="1" stop-color="#494949" stop-opacity="0"/></linearGradient><linearGradient x1="243.53304" y1="76.5723" x2="243.53304" y2="114.10985" gradientUnits="userSpaceOnUse" id="color-2"><stop offset="0" stop-color="#343434"/><stop offset="1" stop-color="#343434" stop-opacity="0"/></linearGradient></defs><g transform="translate(68.5,7.59588)"><g data-paper-data="{&quot;isPaintingLayer&quot;:true}" fill-rule="nonzero" stroke="none" stroke-linecap="butt" stroke-linejoin="miter" stroke-miterlimit="10" stroke-dasharray="" stroke-dashoffset="0" style="mix-blend-mode: normal"><path d="M-68.5,334.64286v-80h204.08462v80z" fill="#a5a5a5" stroke-width="0"/><path d="M-68.5,356.07148v-80h204.08462v80z" fill="#707070" stroke-width="0"/><path d="M-68.5,426.78575v-129.28571h204.08462v129.28571z" fill="#434343" stroke-width="0"/><path d="M401.96547,336.63986v-80h204.08462v80z" fill="#a5a5a5" stroke-width="0"/><path d="M401.96547,358.06847v-80h204.08462v80z" fill="#707070" stroke-width="0"/><path d="M401.96547,428.78274v-129.28571h204.08462v129.28571z" fill="#434343" stroke-width="0"/><path d="M402.77628,96.82688v-104.42276h35.6229v104.42276z" fill="#a5a5a5" stroke-width="0"/><path d="M402.77628,124.79732v-104.42276h35.6229v104.42276z" fill="#707070" stroke-width="0"/><path d="M402.77628,203.58605v-155.24112h35.6229v155.24112z" fill="#434343" stroke-width="0"/><path d="M-2.26802,159.10983v-37.53754h69.6021v37.53754z" fill="url(#color-1)" stroke-width="0"/><path d="M208.73198,114.10985v-37.53754h69.6021v37.53754z" fill="url(#color-2)" stroke-width="0"/><text transform="translate(101.73013,335.76875) scale(0.5,0.5)" font-size="40" xml:space="preserve" fill="#00ff33" fill-rule="nonzero" stroke="none" stroke-width="1" stroke-linecap="butt" stroke-linejoin="miter" stroke-miterlimit="10" stroke-dasharray="" stroke-dashoffset="0" font-family="Sans Serif" font-weight="normal" text-anchor="start" style="mix-blend-mode: normal"><tspan x="0" dy="0">(You'll figure it out... Maybe?)</tspan></text></g></g></svg>