<svg version="1.1" xmlns="http://www.w3.org/2000/svg" xmlns:xlink="http://www.w3.org/1999/xlink" width="640.71243" height="381.70074" viewBox="0,0,640.71243,381.70074"><g transform="translate(76.76931,-45.085)"><g data-paper-data="{&quot;isPaintingLayer&quot;:true}" fill-rule="nonzero" stroke="none" stroke-width="0" stroke-linecap="butt" stroke-linejoin="miter" stroke-miterlimit="10" stroke-dasharray="" stroke-dashoffset="0" style="mix-blend-mode: normal"><path d="M-68.49999,334.64286l-1.5015,-107.02702c0,0 22.59397,-19.51952 62.08691,-19.51952c20.80122,0 51.04693,46.54655 76.57658,46.54655c28.91534,0 59.48544,0 88.58859,0c31.58694,0 61.44585,0 85.58559,0c21.11801,0 46.53324,0 73.57357,0c25.82028,0 53.12231,0 79.57958,0c29.68664,0 59.81121,-45.04505 84.08408,-45.04505c41.24407,0 68.42661,45.04505 68.42661,45.04505v80z" fill="#a5a5a5"/><path d="M-68.49999,356.07146v-80h617v80z" fill="#707070"/><path d="M-68.49999,426.78574v-129.28571h617v129.28571z" fill="#434343"/><path d="M563.60955,66.5134l0.33358,79.9993l-616.99464,2.5727l-0.33358,-79.9993z" fill="#a5a5a5"/><path d="M563.52019,45.085l0.33358,79.9993l-616.99464,2.5727l-0.33358,-79.9993z" fill="#707070"/><path d="M540.22534,49.37134l0.53908,49.865l-616.99464,0.99229l-0.53908,-49.865z" fill="#434343"/></g></g></svg>