<svg version="1.1" xmlns="http://www.w3.org/2000/svg" xmlns:xlink="http://www.w3.org/1999/xlink" width="564.19043" height="442.69119" viewBox="0,0,564.19043,442.69119"><g transform="translate(74.31937,-34.34795)"><g data-paper-data="{&quot;isPaintingLayer&quot;:true}" fill-rule="nonzero" stroke="none" stroke-width="0" stroke-linecap="butt" stroke-linejoin="miter" stroke-miterlimit="10" stroke-dasharray="" stroke-dashoffset="0" style="mix-blend-mode: normal"><path d="M418.95794,114.46685v-80h70.91313v80z" fill="#a5a5a5"/><path d="M418.95794,135.89545v-80h70.91313v80z" fill="#707070"/><path d="M-68.49998,384.89627v-80h558.37105v80z" fill="#a5a5a5"/><path d="M-68.49998,406.32485v-80h558.37105v80z" fill="#707070"/><path d="M-68.49998,477.03914v-129.28571h558.37105v129.28571z" fill="#434343"/><path d="M-74.31937,228.3963v-59.06109h408.44843v59.06109z" fill="#a5a5a5"/><path d="M-74.31937,233.91133v-43.14751h408.44843v43.14751z" fill="#707070"/><path d="M-74.31937,231.62107v-19.4287h408.44843v19.4287z" fill="#434343"/><path d="M78.52202,93.40904v-59.06109h340.60634v59.06109z" fill="#a5a5a5"/><path d="M78.52202,98.92407v-43.14751h340.60634v43.14751z" fill="#707070"/><path d="M79.52202,97.63381v-25.4287h340.60634v25.4287z" fill="#434343"/><path d="M418.95794,361.08075v-283.75675h70.91313v283.75675z" fill="#434343"/></g></g></svg>