<svg version="1.1" xmlns="http://www.w3.org/2000/svg" xmlns:xlink="http://www.w3.org/1999/xlink" width="395" height="303" viewBox="0,0,395,303"><g transform="translate(-42.5,-28.5)"><g data-paper-data="{&quot;isPaintingLayer&quot;:true}" stroke-miterlimit="10" stroke-dasharray="" stroke-dashoffset="0" style="mix-blend-mode: normal"><path d="M112.23134,194.87296c0,-10.85615 0,-25.97378 0,-32.12766c0,-5.24005 4.24211,-11.94263 11.61437,-11.94263c45.01854,0 206.75761,0 232.02128,0c6.49821,0 11.90167,5.15644 11.90167,12.04901c0,10.79525 0,25.84926 0,32.02128c0,5.30777 -5.18876,12.14043 -11.47614,12.14043c-24.8838,0 -186.81524,0 -232.23404,0c-7.50363,0 -11.82713,-5.19913 -11.82713,-12.14043z" fill="#ffffff" fill-rule="nonzero" stroke="#000000" stroke-width="0" stroke-linecap="butt" stroke-linejoin="miter"/><text transform="translate(196.39356,195.94729) scale(1.10417,1.10417)" font-size="40" xml:space="preserve" fill="#000000" fill-rule="nonzero" stroke="none" stroke-width="1" stroke-linecap="butt" stroke-linejoin="miter" stroke-miterlimit="10" stroke-dasharray="" stroke-dashoffset="0" font-family="Sans Serif" font-weight="normal" text-anchor="start" style="mix-blend-mode: normal"><tspan x="0" dy="0">=</tspan></text><text transform="translate(224.91142,191.40307) scale(0.71031,0.71031)" font-size="40" xml:space="preserve" fill="#000000" fill-rule="nonzero" stroke="#000000" stroke-width="3" stroke-linecap="butt" stroke-linejoin="miter" stroke-miterlimit="10" stroke-dasharray="" stroke-dashoffset="0" font-family="&quot;Microsoft YaHei&quot;, &quot;微软雅黑&quot;, STXihei, &quot;华文细黑&quot;" font-weight="normal" text-anchor="start" style="mix-blend-mode: normal"><tspan x="0" dy="0">New Skin!</tspan></text><g fill-rule="evenodd" stroke="none"><path d="M119.14296,175.98428c-0.14188,-5.22044 3.98937,-9.58253 9.20981,-9.72441c2.65077,-0.07205 5.08753,0.94446 6.84013,2.68338c1.65555,-1.83154 4.03347,-2.9789 6.68427,-3.05095c5.22044,-0.14189 9.58253,3.98936 9.72441,9.2098c0.00956,0.35164 -0.00797,0.70401 -0.02544,1.05638c-0.65411,10.79116 -15.6525,19.67135 -15.6525,19.67135c0,0 -15.4586,-8.05237 -16.6979,-18.7921c-0.03661,-0.35091 -0.07322,-0.70179 -0.08279,-1.05343" data-paper-data="{&quot;index&quot;:null}" fill="#ff2a4e" stroke-width="0" stroke-linecap="round" stroke-linejoin="round"/><path d="M176.74974,189.71527c-0.31785,-0.1567 -0.69005,-0.1466 -0.99891,0.02714l-8.83382,4.95335c-0.77492,0.43726 -1.71417,-0.2062 -1.58607,-1.08772l1.43985,-10.02624c0.04944,-0.34913 -0.07419,-0.70113 -0.33536,-0.94111l-7.44089,-6.86952c-0.65498,-0.60367 -0.33111,-1.69388 0.54466,-1.8469l9.98009,-1.72702c0.34806,-0.06078 0.64407,-0.2874 0.79117,-0.60876l4.2332,-9.2013c0.37335,-0.80837 1.51088,-0.83927 1.92568,-0.05233l4.72863,8.95774c0.16437,0.31293 0.47227,0.5231 0.82308,0.56489l10.05917,1.18238c0.88277,0.10524 1.26347,1.1763 0.64418,1.81459l-7.05869,7.26361c-0.24588,0.25374 -0.35205,0.61202 -0.28185,0.9579l1.98234,9.93321c0.17386,0.8733 -0.72903,1.56685 -1.52656,1.17231l-9.08983,-4.46619z" data-paper-data="{&quot;index&quot;:null}" fill="#ffd800" stroke-width="1" stroke-linecap="butt" stroke-linejoin="miter"/></g><path d="M42.5,331.5v-303h395v303z" fill="none" fill-rule="nonzero" stroke="none" stroke-width="none" stroke-linecap="butt" stroke-linejoin="miter"/></g></g></svg>